<svg id="Ebene_1" data-name="Ebene 1" xmlns="http://www.w3.org/2000/svg" viewBox="0 0 85 85"><title>Impressionen ansehen</title><rect x="24.38" y="24.38" width="36.25" height="36.25" rx="8.5" fill="#fff" stroke="#777776" stroke-miterlimit="10"/><path id="path158" d="M51.17,42.5A8.68,8.68,0,0,1,46.83,50a7.3,7.3,0,0,1-1,.5h0a8.68,8.68,0,1,1-2-16.61l.45.09h.06a7.5,7.5,0,0,1,1,.26h0a8.69,8.69,0,0,1,5.83,8.24Z" fill="#99b9d5"/><path d="M45.47,33.88l-.09,0a9.14,9.14,0,0,0-1.06-.26l-.46-.08A9.09,9.09,0,1,0,46,50.89,8,8,0,0,0,47,50.37a9.12,9.12,0,0,0-1.56-16.49Zm5.3,8.62a8.3,8.3,0,0,1-4.14,7.17,6.61,6.61,0,0,1-1,.48,8.28,8.28,0,0,1-10.81-4.49,8.29,8.29,0,0,1,4.49-10.82,8.39,8.39,0,0,1,3.16-.62,8.25,8.25,0,0,1,1.22.09l.5.08a8.48,8.48,0,0,1,1,.25l.08,0a8.27,8.27,0,0,1,5.5,7.84Z" fill="#777776"/><path d="M53.84,28.56a2.23,2.23,0,1,0,2.23,2.23A2.23,2.23,0,0,0,53.84,28.56Z" fill="#777776"/></svg>
