<svg fill="currentColor" viewBox="0 0 32 32" xmlns="http://www.w3.org/2000/svg" class="iconset-icon_box-extern"><path d="M26 26H6V6h9.101l2.023-2H6a2 2 0 0 0-2 2v20a2 2 0 0 0 2 2h20a2 2 0 0 0 2-2V14.347l-2 2.456z"/><path d="M12.32 19.317c.4.392 1.05.392 1.45 0l14.2-13.904v6.094c0 .553.46 1.003 1.025 1.003s1.025-.45 1.025-1.003v-8.52a1.007 1.007 0 0 0-.634-.924 1.011 1.011 0 0 0-.382-.076l-.009-.003h-8.7c-.565 0-1.025.45-1.025 1.004 0 .553.46 1.003 1.025 1.003l6.225.002-14.2 13.904a.99.99 0 0 0 0 1.42z"/></svg>