<svg id="Ebene_1" data-name="Ebene 1" xmlns="http://www.w3.org/2000/svg" viewBox="0 0 85 85">
  <title>hotel-strandhus-cuxhaven-glasses</title>
  <g>
    <g>
      <path id="path154" d="M36.17,47.42s3.74-3.53,6.32-3.53c3,0,6.31,3.33,6.31,3.33l-.37-10.43a12.7,12.7,0,0,0-5.94-2,8.64,8.64,0,0,0-6.12,2.6Z" fill="#fff"/>
      <path d="M36.17,47.82a.41.41,0,0,1-.16,0,.39.39,0,0,1-.24-.37L36,37.36a.39.39,0,0,1,.11-.27,9.14,9.14,0,0,1,6.4-2.72,13,13,0,0,1,6.18,2.09.44.44,0,0,1,.18.31l.36,10.44a.4.4,0,0,1-.68.29s-3.21-3.21-6-3.21c-2.39,0-6,3.39-6.05,3.42A.35.35,0,0,1,36.17,47.82Zm.6-10.28-.18,9c1.23-1,3.85-3,5.9-3,2.32,0,4.71,1.78,5.88,2.79L48,37a12.19,12.19,0,0,0-5.55-1.84A8.33,8.33,0,0,0,36.77,37.54Z" fill="#777776"/>
    </g>
    <g>
      <path id="path156" d="M39,42.05A6.65,6.65,0,0,1,35,48.11h0l-4.07,2a8.68,8.68,0,0,0-1.52-15.74L34,35.64h0A6.64,6.64,0,0,1,39,42.05Z" fill="#fff"/>
      <path d="M31,50.53a.4.4,0,0,1-.2-.75,8.29,8.29,0,0,0,3-11.3,8.29,8.29,0,0,0-4.5-3.71.4.4,0,0,1,.24-.76l4.58,1.25A7,7,0,0,1,39.35,42h0a7,7,0,0,1-4.16,6.42l-4.07,2A.47.47,0,0,1,31,50.53Zm1.48-14.9a9.09,9.09,0,0,1,3,9.34,9.15,9.15,0,0,1-1.71,3.36l1.16-.58A6.23,6.23,0,0,0,33.91,36Z" fill="#777776"/>
    </g>
    <g>
      <path id="path158" d="M35.29,42.6A8.68,8.68,0,0,1,31,50.11a9.55,9.55,0,0,1-1,.51h0a8.68,8.68,0,1,1-6.62-16,8.61,8.61,0,0,1,4.6-.56l.45.08h.05a7.13,7.13,0,0,1,1,.26h0a8.71,8.71,0,0,1,5.83,8.25Z" fill="#99b9d5"/>
      <path d="M26.63,51.68a9.17,9.17,0,0,1-3.49-.7A9.08,9.08,0,0,1,28,33.61l.46.08A9.14,9.14,0,0,1,29.5,34l.09,0a9.11,9.11,0,0,1,1.56,16.48,9.53,9.53,0,0,1-1.06.53A9.09,9.09,0,0,1,26.63,51.68Zm0-17.37a8.28,8.28,0,1,0,3.15,15.93,6.57,6.57,0,0,0,1-.47,8.32,8.32,0,0,0,4.15-7.17h0a8.31,8.31,0,0,0-5.51-7.84l-.07,0a8.12,8.12,0,0,0-1-.25l-.49-.08A8.35,8.35,0,0,0,26.63,34.31Z" fill="#777776"/>
    </g>
    <g>
      <path id="path162" d="M46.06,41.87A6.64,6.64,0,0,0,50,47.93h0l4.08,2a8.67,8.67,0,0,1,1.51-15.73L51,35.47h0A6.63,6.63,0,0,0,46.06,41.87Z" fill="#fff"/>
      <path d="M54.07,50.35a.37.37,0,0,1-.18,0l-4.08-2a7.06,7.06,0,0,1-4.15-6.42h0a7,7,0,0,1,5.24-6.79l4.57-1.25a.39.39,0,0,1,.49.27.4.4,0,0,1-.25.5,8.27,8.27,0,0,0-1.44,15,.41.41,0,0,1,.15.54A.4.4,0,0,1,54.07,50.35Zm-7.61-8.48a6.24,6.24,0,0,0,3.69,5.69l1.19.59a9.12,9.12,0,0,1-.82-10.25,9,9,0,0,1,2.06-2.45l-1.47.4a6.27,6.27,0,0,0-4.65,6Z" fill="#777776"/>
    </g>
    <g>
      <path id="path164" d="M49.72,42.41a8.67,8.67,0,0,0,4.35,7.51,6.37,6.37,0,0,0,1,.51h0a8.44,8.44,0,0,0,3.3.65,8.68,8.68,0,0,0,0-17.36,9.08,9.08,0,0,0-1.28.1l-.45.08h-.06a8.85,8.85,0,0,0-1,.27h0a8.69,8.69,0,0,0-5.84,8.24Z" fill="#99b9d5"/>
      <path d="M58.37,51.49a9.08,9.08,0,0,1-3.45-.69,8.73,8.73,0,0,1-1.06-.53,9.11,9.11,0,0,1,1.56-16.48l.1,0a6.87,6.87,0,0,1,1-.26l.52-.09a10.2,10.2,0,0,1,1.34-.1h0a9.09,9.09,0,0,1,0,18.17ZM55.62,34.57a8.3,8.3,0,0,0-5.5,7.84h0a8.32,8.32,0,0,0,4.15,7.17,8.59,8.59,0,0,0,1,.48,8.25,8.25,0,0,0,3.14.62h0a8.28,8.28,0,0,0,0-16.56c-.42,0-.82,0-1.22.1l-.57.08c-.24.06-.57.14-.88.25Z" fill="#777776"/>
    </g>
  </g>
</svg>
