<?xml version="1.0" standalone="no"?>
<!DOCTYPE svg PUBLIC "-//W3C//DTD SVG 20010904//EN"
 "http://www.w3.org/TR/2001/REC-SVG-20010904/DTD/svg10.dtd">
<svg version="1.0" xmlns="http://www.w3.org/2000/svg"
 width="700.000000pt" height="700.000000pt" viewBox="0 0 700.000000 700.000000"
 preserveAspectRatio="xMidYMid meet">
<metadata>
Created by potrace 1.11, written by Peter Selinger 2001-2013
</metadata>
<g transform="translate(0.000000,700.000000) scale(0.100000,-0.100000)"
fill="#000000" stroke="none">
<path d="M3279 6976 c-2 -2 -40 -6 -84 -10 -79 -6 -146 -13 -195 -22 -14 -2
-43 -7 -65 -10 -53 -7 -209 -40 -310 -65 -301 -75 -660 -227 -940 -399 -78
-48 -217 -140 -225 -149 -3 -3 -41 -33 -85 -66 -44 -32 -85 -64 -91 -69 -6 -6
-42 -38 -80 -71 -93 -80 -296 -286 -356 -360 -27 -33 -89 -114 -138 -180 -50
-66 -93 -124 -98 -130 -68 -87 -255 -435 -325 -605 -67 -164 -147 -407 -163
-496 -3 -15 -7 -31 -9 -34 -2 -4 -7 -22 -10 -41 -3 -19 -10 -50 -15 -69 -5
-19 -16 -84 -25 -145 -9 -60 -18 -123 -20 -140 -14 -89 -20 -223 -20 -415 0
-266 9 -370 51 -625 30 -179 116 -477 196 -675 43 -107 76 -176 177 -375 49
-98 260 -415 319 -481 9 -11 39 -46 67 -79 146 -176 317 -341 524 -508 263
-212 670 -433 1010 -548 217 -74 486 -137 656 -155 33 -4 63 -8 66 -10 31 -17
576 -26 714 -11 118 13 149 17 180 22 17 3 49 7 71 10 65 8 233 44 329 70 33
9 69 18 79 20 47 10 251 82 361 127 121 50 417 198 446 224 8 8 18 14 22 14
10 0 172 106 256 168 199 146 405 334 551 501 30 35 60 69 65 75 72 76 269
356 352 501 107 184 224 449 291 655 32 98 78 264 86 312 3 15 7 31 9 35 3 5
8 31 11 58 4 28 11 68 16 90 5 22 12 67 15 100 4 33 9 69 11 80 25 122 25 683
0 810 -2 11 -7 47 -11 80 -4 32 -8 67 -10 76 -2 9 -6 32 -9 50 -33 209 -129
531 -222 748 -62 145 -174 365 -215 423 -11 14 -19 29 -19 32 0 12 -147 223
-222 320 -99 127 -187 225 -309 346 -97 96 -106 104 -214 195 -330 279 -738
503 -1160 638 -164 53 -365 101 -509 123 -22 3 -43 7 -46 9 -3 2 -43 6 -89 10
-46 4 -93 9 -105 12 -23 6 -532 14 -537 9z"/>
</g>
</svg>
