<?xml version="1.0" standalone="no"?>
<!DOCTYPE svg PUBLIC "-//W3C//DTD SVG 20010904//EN"
 "http://www.w3.org/TR/2001/REC-SVG-20010904/DTD/svg10.dtd">
<svg version="1.0" xmlns="http://www.w3.org/2000/svg"
 width="700.000000pt" height="700.000000pt" viewBox="0 0 700.000000 700.000000"
 preserveAspectRatio="xMidYMid meet">
<metadata>
Created by potrace 1.11, written by Peter Selinger 2001-2013
</metadata>
<g transform="translate(0.000000,700.000000) scale(0.100000,-0.100000)"
fill="#000000" stroke="none">
<path d="M3257 6714 c-1 -1 -36 -5 -77 -8 -72 -7 -97 -10 -177 -21 -73 -11
-108 -16 -133 -21 -14 -3 -36 -7 -50 -9 -14 -2 -72 -15 -130 -30 -58 -15 -113
-29 -123 -31 -49 -9 -305 -102 -407 -147 -384 -170 -689 -379 -977 -672 -144
-145 -181 -188 -288 -330 -209 -277 -377 -594 -484 -910 -29 -89 -75 -246 -85
-295 -3 -14 -8 -36 -11 -50 -24 -103 -52 -293 -62 -420 -10 -116 -9 -403 0
-525 89 -1126 759 -2116 1777 -2625 226 -113 550 -228 740 -264 14 -2 45 -9
70 -14 25 -6 63 -13 85 -16 23 -4 50 -8 61 -10 11 -2 47 -7 79 -11 33 -4 71
-9 85 -11 14 -2 114 -7 223 -11 l199 -6 -6 52 c-27 242 -28 880 -2 1041 4 23
17 129 17 140 0 3 15 77 34 165 40 193 41 265 2 378 -53 152 -139 305 -218
387 l-40 41 15 42 c17 50 36 94 77 185 30 65 75 172 165 394 74 184 87 306 43
393 -59 115 -164 160 -382 164 -125 2 -154 8 -177 36 -18 22 -17 113 4 195 16
61 24 85 78 228 28 74 170 384 292 635 142 293 205 457 224 582 10 67 9 548
-1 705 -13 198 -23 308 -33 380 -3 19 -7 49 -9 65 -2 17 -6 48 -9 69 -3 22
-13 63 -21 93 -21 71 -33 75 -218 71 -82 -1 -149 -3 -150 -4z m229 -157 c6 -6
14 -62 29 -212 7 -74 21 -258 30 -405 8 -118 8 -438 0 -515 -14 -148 -60 -279
-192 -555 -39 -80 -98 -201 -131 -270 -102 -213 -180 -390 -237 -539 -9 -25
-27 -90 -40 -145 -49 -207 -17 -330 103 -390 31 -16 64 -19 272 -30 154 -8
205 -47 194 -147 -6 -47 -34 -138 -64 -204 -10 -22 -34 -78 -53 -125 -19 -47
-65 -152 -102 -235 -137 -304 -138 -336 -26 -455 71 -75 142 -198 186 -325 21
-58 24 -173 7 -225 -11 -33 -15 -50 -27 -117 -3 -16 -8 -39 -11 -53 -7 -29
-11 -51 -18 -100 -2 -19 -8 -57 -12 -85 -3 -27 -8 -59 -10 -70 -24 -128 -22
-671 2 -868 l6 -48 -126 6 c-69 3 -134 8 -145 10 -11 2 -48 6 -82 10 -35 4
-66 8 -69 10 -3 2 -30 6 -60 10 -30 4 -58 9 -61 11 -4 2 -24 6 -45 10 -106 16
-338 86 -492 149 -411 166 -735 382 -1040 694 -392 400 -652 868 -787 1415
-19 78 -37 159 -40 181 -3 22 -10 65 -15 95 -27 165 -34 269 -35 475 0 158 8
317 20 387 2 13 6 40 9 61 7 47 18 109 20 122 2 6 8 37 15 70 164 778 671
1493 1377 1942 402 256 921 427 1389 459 50 3 91 7 92 8 4 4 165 -2 169 -7z"/>
<path d="M2733 2474 c-23 -23 -25 -30 -19 -87 4 -34 9 -77 12 -94 l5 -33 -48
-1 c-26 0 -60 -3 -75 -5 -28 -5 -30 -1 -43 111 -11 90 -54 130 -114 105 -49
-20 -60 -82 -35 -211 5 -24 1 -26 -88 -53 -51 -15 -99 -28 -105 -29 -7 -1 -34
34 -61 78 -55 91 -84 110 -130 84 -15 -8 -31 -27 -37 -43 -8 -24 -4 -39 32
-108 37 -69 40 -80 25 -85 -9 -4 -43 -22 -75 -40 l-57 -34 -48 45 c-26 24 -59
54 -74 65 -84 66 -175 -38 -100 -115 95 -97 176 -164 199 -164 14 0 53 17 87
39 221 139 490 220 736 220 58 0 110 0 117 0 6 1 19 8 28 17 16 16 16 69 0
234 -1 14 -3 38 -4 53 -1 36 -42 77 -76 77 -14 0 -37 -11 -52 -26z"/>
<path d="M5940 5554 c-162 -38 -292 -131 -480 -344 -41 -47 -77 -87 -80 -90
-3 -3 -34 -39 -70 -80 -199 -230 -336 -314 -505 -309 -148 4 -323 52 -451 124
-106 60 -283 199 -269 213 3 3 148 7 322 10 306 3 317 3 301 -15 -9 -10 -17
-21 -17 -26 0 -4 -2 -21 -6 -37 -19 -85 45 -188 129 -211 81 -22 169 9 214 74
31 47 39 124 18 176 l-16 41 53 1 c28 0 61 2 72 4 11 2 40 7 65 10 157 23 247
117 198 208 -27 52 -121 104 -255 142 -132 37 -209 44 -418 40 -168 -3 -224
-9 -405 -41 -83 -14 -271 -79 -344 -117 -90 -48 -135 -96 -143 -153 -4 -34 0
-45 38 -94 183 -234 450 -405 729 -466 109 -24 285 -29 360 -10 189 47 310
145 576 466 259 312 425 401 657 353 122 -25 190 -78 260 -204 58 -105 115
-299 141 -484 31 -217 28 -711 -4 -945 -18 -126 -21 -146 -47 -275 -63 -324
-181 -601 -293 -692 l-28 -22 -22 62 c-43 118 -128 266 -183 318 -42 39 -107
71 -147 72 -51 1 -88 -25 -118 -86 -86 -170 76 -458 299 -532 42 -14 49 -21
55 -50 17 -90 8 -317 -17 -415 -6 -25 -13 -54 -15 -64 -20 -103 -114 -309
-201 -441 -84 -127 -148 -203 -282 -335 -170 -166 -343 -297 -611 -462 -124
-76 -342 -175 -525 -238 -101 -35 -383 -107 -449 -115 -24 -2 -50 -7 -57 -9
-15 -5 -44 -10 -144 -22 -92 -11 -105 -12 -183 -13 l-72 -1 4 -53 c2 -28 4
-63 5 -76 1 -23 2 -23 79 -17 42 3 86 8 98 10 12 2 45 7 75 10 56 7 197 27
214 31 6 1 28 5 50 9 22 5 67 15 100 23 33 8 67 16 75 18 203 40 573 190 801
324 656 386 1069 878 1179 1401 24 114 32 323 18 448 l-7 52 37 19 c76 39 178
165 231 286 78 175 158 465 185 675 1 8 5 40 9 70 27 199 32 289 32 550 0 285
-7 404 -35 565 -71 403 -207 637 -416 710 -124 44 -258 54 -364 29z m-960
-248 c94 -17 141 -28 186 -45 l49 -19 -30 -8 c-16 -4 -249 -8 -517 -8 -517 -1
-529 0 -343 41 117 25 147 29 265 39 41 4 76 8 78 9 6 5 278 -3 312 -9z m-25
-291 c30 -30 31 -54 4 -89 -26 -33 -62 -34 -94 -1 -37 36 -33 79 10 103 31 18
54 14 80 -13z m1024 -2092 c24 -48 50 -103 58 -121 l14 -34 -47 36 c-60 46
-92 93 -114 168 -16 50 -17 68 -10 98 3 15 61 -70 99 -147z"/>
</g>
</svg>
