<?xml version="1.0" encoding="utf-8"?>
<!-- Generator: Adobe Illustrator 24.0.2, SVG Export Plug-In . SVG Version: 6.00 Build 0)  -->
<svg version="1.1" id="Ebene_1" xmlns="http://www.w3.org/2000/svg" xmlns:xlink="http://www.w3.org/1999/xlink" x="0px" y="0px"
	 viewBox="0 0 85 85" enable-background="new 0 0 85 85" xml:space="preserve">
<g>
	<g>
		<g>
			<path fill="#74AABE" d="M-1.3,30.7c1.8-2.3,4.3-3.8,7.3-4c3.2-0.2,5.9,1.4,8.5,2.9c2.9,1.7,5.8,3.4,9.1,4.1
				c3.4,0.8,6.8,0.8,10.2,0.2c3.2-0.6,6.2-1.9,8.8-3.8c2.8-2,5.2-4.4,8.9-4.3c3.5,0.1,6.6,1.9,9.5,3.7c3.2,2,6.4,4.1,10.1,5.2
				c3.8,1.1,7.7,0.9,11.2-0.9c3.2-1.7,5.7-4.6,7.6-7.7c1.6-2.6-2.5-4.9-4-2.4c-1.5,2.5-3.6,4.9-6.3,6.2c-2.9,1.4-6.1,0.9-9-0.3
				c-6.7-2.8-12.2-8.8-20-8.4c-3.7,0.2-6.5,2-9.4,4.2c-2.5,1.9-5.2,3.3-8.3,4c-3.1,0.6-6.3,0.5-9.3-0.4c-3-0.9-5.6-2.8-8.4-4.3
				c-3.2-1.8-6.7-3-10.4-2.6c-3.7,0.5-7.2,2.3-9.5,5.2c-0.8,1-1,2.3,0,3.3C-3.8,31.5-2.1,31.7-1.3,30.7L-1.3,30.7z"/>
		</g>
	</g>
	<g>
		<g>
			<path fill="#74AABE" d="M-1.3,44.8c1.8-2.3,4.3-3.8,7.3-4c3.2-0.2,5.9,1.4,8.5,2.9c2.9,1.7,5.8,3.4,9.1,4.1
				c3.4,0.8,6.8,0.8,10.2,0.2c3.2-0.6,6.2-1.9,8.8-3.8c2.8-2,5.2-4.4,8.9-4.3c3.5,0.1,6.6,1.9,9.5,3.7c3.2,2,6.4,4.1,10.1,5.2
				c3.8,1.1,7.7,0.9,11.2-0.9c3.2-1.7,5.7-4.6,7.6-7.7c1.6-2.6-2.5-4.9-4-2.4c-1.5,2.5-3.6,4.9-6.3,6.2c-2.9,1.4-6.1,0.9-9-0.3
				c-6.7-2.8-12.2-8.8-20-8.4c-3.7,0.2-6.5,2-9.4,4.2c-2.5,1.9-5.2,3.3-8.3,4c-3.1,0.6-6.3,0.5-9.3-0.4c-3-0.9-5.6-2.8-8.4-4.3
				c-3.2-1.8-6.7-3-10.4-2.6c-3.7,0.5-7.2,2.3-9.5,5.2c-0.8,1-1,2.3,0,3.3C-3.8,45.7-2.1,45.8-1.3,44.8L-1.3,44.8z"/>
		</g>
	</g>
	<g>
		<g>
			<path fill="#74AABE" d="M-1.3,59c1.8-2.3,4.3-3.8,7.3-4c3.2-0.2,5.9,1.4,8.5,2.9c2.9,1.7,5.8,3.4,9.1,4.1
				c3.4,0.8,6.8,0.8,10.2,0.2c3.2-0.6,6.2-1.9,8.8-3.8c2.8-2,5.2-4.4,8.9-4.3c3.5,0.1,6.6,1.9,9.5,3.7c3.2,2,6.4,4.1,10.1,5.2
				c3.8,1.1,7.7,0.9,11.2-0.9c3.2-1.7,5.7-4.6,7.6-7.7c1.6-2.6-2.5-4.9-4-2.4c-1.5,2.5-3.6,4.9-6.3,6.2c-2.9,1.4-6.1,0.9-9-0.3
				c-6.7-2.8-12.2-8.8-20-8.4c-3.7,0.2-6.5,2-9.4,4.2c-2.5,1.9-5.2,3.3-8.3,4c-3.1,0.6-6.3,0.5-9.3-0.4c-3-0.9-5.6-2.8-8.4-4.3
				c-3.2-1.8-6.7-3-10.4-2.6c-3.7,0.5-7.2,2.3-9.5,5.2c-0.8,1-1,2.3,0,3.3C-3.8,59.8-2.1,60-1.3,59L-1.3,59z"/>
		</g>
	</g>
</g>
</svg>
