<?xml version="1.0" encoding="utf-8"?>
<!-- Generator: Adobe Illustrator 24.0.2, SVG Export Plug-In . SVG Version: 6.00 Build 0)  -->
<svg version="1.1" id="Ebene_1" xmlns="http://www.w3.org/2000/svg" xmlns:xlink="http://www.w3.org/1999/xlink" x="0px" y="0px"
	 viewBox="0 0 85 85" style="enable-background:new 0 0 85 85;" xml:space="preserve">
<style type="text/css">
	.st0{fill:#EBEBEB;}
	.st1{fill:#FFFFFF;}
</style>
<circle class="st0" cx="42.5" cy="42.5" r="35.7"/>
<g>
	<g>
		<path class="st1" d="M45.8,63.8c0-0.2,0-0.4,0-0.5c0-6.1,0-12.1,0-18.2c0-0.2,0-0.4,0-0.6c0.2,0,0.4,0,0.5,0c1.8,0,3.7,0,5.5,0
			c0.3,0,0.5-0.1,0.5-0.4c0.2-1.9,0.5-3.7,0.7-5.6c0.1-0.5,0.1-1,0.2-1.6c-2.5,0-5,0-7.4,0c0-0.1-0.1-0.1-0.1-0.2
			c0-1.9,0-3.8,0.1-5.7c0.1-1.2,0.8-2.1,1.9-2.4c0.4-0.1,0.7-0.2,1.1-0.2c1.4,0,2.7,0,4.1,0c0.2,0,0.3,0,0.5,0c0-0.2,0-0.3,0-0.4
			c0-2,0-4,0-6c0-0.4-0.2-0.5-0.5-0.5c-0.6,0-1.1-0.1-1.7-0.1c-1.9-0.1-3.8-0.3-5.7,0c-2.2,0.3-4.1,1.2-5.5,2.9
			c-1.6,1.8-2.2,4.1-2.3,6.4c-0.1,1.8,0,3.7,0,5.5c0,0.2,0,0.3,0,0.5c-2.2,0-4.3,0-6.5,0c0,0.1,0,0.1,0,0.2c0,2.4,0,4.7,0,7.1
			c0,0.3,0.2,0.4,0.4,0.4c1.9,0,3.7,0,5.6,0c0.2,0,0.3,0,0.5,0c0,0.2,0,0.4,0,0.6c0,6,0,12.1,0,18.1c0,0.2,0,0.4,0,0.6H45.8z"/>
	</g>
</g>
</svg>
