<?xml version="1.0" encoding="utf-8"?>
<!-- Generator: Adobe Illustrator 23.1.0, SVG Export Plug-In . SVG Version: 6.00 Build 0)  -->
<svg version="1.1" id="Ebene_1" xmlns="http://www.w3.org/2000/svg" xmlns:xlink="http://www.w3.org/1999/xlink" x="0px" y="0px"
	 viewBox="0 0 532.1 46.8" style="enable-background:new 0 0 532.1 46.8;" xml:space="preserve">
<style type="text/css">
	.st0{fill:#404040;}
</style>
<g>
	<path class="st0" d="M531.7,36.6L531.7,36.6c-0.2-0.2-0.4-0.2-0.7-0.2c-0.2,0-0.5,0.1-0.6,0.3c-3.3,4.2-8.6,8.2-10.7,7.2
		c-1.3-0.6-1.5-3.4-0.7-7.6c0.1-0.4,0.4-1.4,1.7-4.3c0.3-0.5,0.6-1.1,0.9-1.7c1.1-2.2,2.6-5.1,4.2-7.7c1.2-1.8,2.1-3.8,3-5.6
		l0.1-0.1c0.5-1,1-2.1,1.6-3.1c0-0.1,0.1-0.1,0.1-0.2c0.4-1.4,0.5-2,0-2.5c-0.2-0.2-0.7-0.3-1-0.2c-1.9,0.6-9.7,18.6-10,19.3
		c-1.4,2.7-2.6,4.8-4,6.6c-0.1,0.2-0.2,0.4-0.2,0.6c-2.9,2.8-9.2,5.3-13.3,4.2c-1.9-0.5-3.2-1.8-3.7-3.7c3.9-1.7,8.1-4.9,7.3-8.4
		c-0.3-1.6-1.4-2.5-2.8-2.2c-2.9,0.5-6.7,5.8-6.5,9.8c-3.3,4.1-8.4,7.9-10.5,6.9c-1.3-0.6-1.5-3.4-0.7-7.6c0.1-0.5,0.7-2.1,1.6-4.3
		c0.3-0.6,0.6-1.2,0.9-1.7c1.1-2.2,2.6-5.1,4.2-7.7c0.5-0.8,1-1.7,1.6-2.8c2.6-0.2,6.1-0.3,9.3,0.5c0.2,0.1,0.5,0,0.7-0.1
		c0.2-0.1,0.4-0.3,0.4-0.6c0.1-0.5-0.2-1-0.7-1.1c-2.5-0.6-5.3-0.8-8.8-0.6c0.1-0.2,0.2-0.4,0.3-0.7l0.1-0.3
		c0.5-1.1,1.1-2.2,1.7-3.3c0-0.1,0.1-0.1,0.1-0.2c0.4-1.4,0.5-2,0-2.5c-0.2-0.2-0.7-0.3-1-0.2c-0.3,0.1-1,0.3-4.5,7.3
		c-0.8,0.1-1.7,0.2-2.5,0.3c-2.6,0.3-5.4,0.6-8,0.6c-0.5,0-0.9,0.4-0.9,0.9s0.4,0.9,0.9,0.9c2.7,0,5.5-0.3,8.2-0.6
		c0.4,0,0.9-0.1,1.4-0.1c-1.5,3.1-3.1,6.7-4.6,10.1c-1,1.9-2.3,4.3-3.8,6.5c-3.4,2.7-10.4,4-14.3,1.7c-0.1-0.1-0.2-0.1-0.3-0.2
		c0.9-1.1,1.8-2.6,1.5-3.9c-0.2-0.8-0.8-1.8-2.7-2.1c-2.1-0.4-2.9,0.5-3.2,1.2c-0.5,1.4,0.6,3.3,1.8,4.8c-0.4,0.4-0.9,0.8-1.4,1.1
		c-1.8,1.2-3.5,1.8-4.2,1.3c-0.5-0.3-0.6-1.5-0.3-3.1c0-0.2,0-0.5-0.1-0.7c-0.1-0.2-0.3-0.3-0.6-0.4c-0.1,0-0.2,0-0.3,0
		c-0.2,0-0.4,0.1-0.6,0.2c-3.7,2.7-6.1,3.9-7.4,3.6c-0.9-0.2-1.4-1-2.2-2.2c-0.6-1-1.4-2-2.5-3.1c-0.4-0.3-0.9-0.5-1.4-0.5
		c-1.5,0.1-2.9,1.8-4.5,3.8c-1.2,1.4-2.8,3.3-3.7,3.4c0,0-0.1,0-0.2-0.1c-0.4-0.4-0.8-2.1,1.1-9c0.6-1.2,1.2-2.5,1.8-3.9l0.8-1.8
		c1-2.5,2.1-5,2.9-7.3c3.8-9.9,3.7-10,2.8-10.5c-0.3-0.2-0.9-0.2-1.3,0.4c-0.7,1-6.1,13.2-8.7,22.5c-1,2-2,3.7-2.8,4.9
		c-0.3,0.4-0.2,1,0.2,1.3c0.4,0.3,1,0.2,1.3-0.2c0,0,0,0,0-0.1c-0.4,2.6-0.2,4.2,0.6,5c0.4,0.4,1,0.7,1.5,0.7c0,0,0.1,0,0.1,0
		c1.6-0.1,3.3-2,5-4c1-1.2,2.6-3.1,3.2-3.1c0.1,0,0.1,0,0.1,0c0.9,0.9,1.6,1.8,2.2,2.7c0.9,1.4,1.8,2.7,3.4,3
		c1.7,0.3,3.9-0.6,7.3-2.9c0,1.4,0.5,2.4,1.3,3c1.4,0.9,3.7,0.4,6.2-1.3c0.6-0.4,1.1-0.8,1.6-1.3c0.2,0.2,0.4,0.3,0.6,0.4
		c4.5,2.7,12.5,1.3,16.4-1.8c-0.5,4.1,0.1,6.6,2,7.5c0.4,0.2,0.9,0.3,1.5,0.3c3.1,0,7.3-3.3,10.3-6.7c0.8,2.1,2.4,3.6,4.7,4.2
		c0.8,0.2,1.6,0.3,2.6,0.3c4.3,0,9.8-2.3,12.6-5.1c-0.4,3.8,0.3,6.1,2.1,7c0.4,0.2,0.9,0.3,1.5,0.3c3.5,0,8.3-4.1,11.4-8
		C532.2,37.5,532.1,36.9,531.7,36.6z M466.2,36.8c-1-1.3-1.5-2.5-1.4-2.9c0,0,0.2-0.1,0.5-0.1c0.2,0,0.4,0,0.7,0.1
		c0.5,0.1,1.1,0.3,1.2,0.7C467.3,35.1,466.9,35.9,466.2,36.8z M503.3,29L503.3,29c0.1,0,0.1,0,0.2,0c0.3,0,0.4,0.3,0.6,0.8
		c0.5,2.1-2.5,4.6-5.7,6.1C498.7,32.9,501.7,29.3,503.3,29z"/>
	<path class="st0" d="M116.8,25.5c1.7-2.5,2.6-5.5,2.6-9c0-5-1.7-8.9-5.1-11.7c-3.4-2.8-8.1-4.2-14-4.2H82.5v45.7H89V32.3h11.3
		c0.7,0,1.7,0,2.9-0.1l9.9,14h7.1l-10.8-15.4C112.5,29.8,115,28,116.8,25.5z M100.1,26.8H89V6.2h11.1c4.1,0,7.3,0.9,9.5,2.6
		c2.2,1.8,3.3,4.3,3.3,7.6c0,3.3-1.1,5.9-3.3,7.6C107.4,25.9,104.2,26.8,100.1,26.8z"/>
	<path class="st0" d="M407.3,23.1c-2.1-0.8-4.9-1.7-8.3-2.5c-2.7-0.6-4.8-1.2-6.3-1.7c-1.5-0.5-2.8-1.3-3.9-2.3
		c-1-1-1.6-2.3-1.6-3.8c0-2.1,0.9-3.9,2.8-5.2c1.8-1.3,4.6-2,8.3-2c2.1,0,4.2,0.3,6.4,0.9c2.2,0.6,4.2,1.6,6.1,2.8l2.2-5.2
		c-1.9-1.3-4.1-2.3-6.7-3c-2.6-0.7-5.3-1-8-1c-3.9,0-7.1,0.6-9.7,1.8c-2.6,1.2-4.6,2.7-5.8,4.7c-1.3,2-1.9,4.2-1.9,6.6
		c0,2.9,0.8,5.2,2.3,7c1.5,1.7,3.3,3,5.4,3.8c2.1,0.8,4.9,1.7,8.3,2.5c2.7,0.7,4.9,1.2,6.4,1.8c1.5,0.5,2.8,1.3,3.8,2.3
		c1,1,1.5,2.3,1.5,3.8c0,2.1-0.9,3.8-2.8,5.1c-1.9,1.3-4.7,1.9-8.5,1.9c-2.9,0-5.7-0.5-8.4-1.5c-2.7-1-5-2.3-6.7-3.8l-2.4,5.1
		c1.8,1.7,4.3,3.1,7.5,4.1c3.2,1.1,6.5,1.6,10,1.6c3.9,0,7.1-0.6,9.8-1.7s4.6-2.7,5.9-4.7c1.3-2,2-4.2,2-6.6c0-2.9-0.8-5.2-2.3-6.9
		C411.2,25.2,409.4,24,407.3,23.1z"/>
	<polygon class="st0" points="313.4,20.2 287.1,20.2 287.1,0.5 280.6,0.5 280.6,46.3 287.1,46.3 287.1,25.9 313.4,25.9 313.4,46.3 
		319.9,46.3 319.9,0.5 313.4,0.5 	"/>
	<polygon class="st0" points="37.5,6.2 53.2,6.2 53.2,46.3 59.7,46.3 59.7,6.2 75.3,6.2 75.3,0.5 37.5,0.5 	"/>
	<path class="st0" d="M27.6,23.1c-2.1-0.8-4.9-1.7-8.3-2.5c-2.7-0.6-4.8-1.2-6.3-1.7c-1.5-0.5-2.8-1.3-3.9-2.3c-1-1-1.6-2.3-1.6-3.8
		c0-2.1,0.9-3.9,2.8-5.2c1.9-1.3,4.6-2,8.3-2c2.1,0,4.2,0.3,6.4,0.9c2.2,0.6,4.2,1.6,6.1,2.8l2.2-5.2c-1.9-1.3-4.1-2.3-6.7-3
		c-2.6-0.7-5.3-1-8-1c-3.9,0-7.1,0.6-9.7,1.8C6.3,2.9,4.3,4.5,3,6.5c-1.3,2-1.9,4.2-1.9,6.6c0,2.9,0.8,5.2,2.3,7
		c1.5,1.7,3.3,3,5.4,3.8c2.1,0.8,4.9,1.7,8.3,2.5c2.7,0.7,4.9,1.2,6.4,1.8c1.5,0.5,2.8,1.3,3.8,2.3c1,1,1.5,2.3,1.5,3.8
		c0,2.1-0.9,3.8-2.8,5.1c-1.9,1.3-4.7,1.9-8.5,1.9c-2.9,0-5.7-0.5-8.4-1.5c-2.7-1-5-2.3-6.7-3.8L0,41c1.8,1.7,4.3,3.1,7.5,4.1
		c3.2,1.1,6.5,1.6,10,1.6c3.9,0,7.1-0.6,9.8-1.7c2.7-1.2,4.6-2.7,5.9-4.7c1.3-2,2-4.2,2-6.6c0-2.9-0.8-5.2-2.3-6.9
		C31.5,25.2,29.7,24,27.6,23.1z"/>
	<path class="st0" d="M364.2,26.3c0,5-1.1,8.7-3.3,11.1c-2.2,2.4-5.4,3.6-9.6,3.6c-8.6,0-12.9-4.9-12.9-14.7V0.5h-6.5v26
		c0,6.5,1.7,11.5,5.1,15c3.4,3.5,8.1,5.2,14.2,5.2s10.8-1.7,14.2-5.2c3.4-3.5,5.1-8.5,5.1-15.1v-26h-6.3V26.3z"/>
	<path class="st0" d="M260.2,3.4c-3.7-1.9-8-2.9-12.9-2.9H228v45.7h19.3c4.8,0,9.1-1,12.9-2.9c3.7-1.9,6.7-4.6,8.7-8.1
		c2.1-3.5,3.1-7.4,3.1-11.9c0-4.5-1-8.5-3.1-11.9C266.8,8,263.9,5.3,260.2,3.4z M263.2,32.4c-1.5,2.6-3.7,4.6-6.5,6
		c-2.8,1.4-6.1,2.2-9.8,2.2h-12.3V6.2h12.3c3.7,0,7,0.7,9.8,2.2c2.8,1.4,5,3.5,6.5,6c1.5,2.6,2.3,5.6,2.3,9
		C265.5,26.8,264.7,29.8,263.2,32.4z"/>
	<polygon class="st0" points="210.6,34.6 183.1,0.5 177.8,0.5 177.8,46.3 184.3,46.3 184.3,12.2 211.8,46.3 217.1,46.3 217.1,0.5 
		210.6,0.5 	"/>
	<path class="st0" d="M143.7,0.5L123,46.3h6.7l5-11.4h24.3l5,11.4h6.9L150.2,0.5H143.7z M137.1,29.6l9.9-22.4l9.9,22.4H137.1z"/>
</g>
</svg>
