<?xml version="1.0" encoding="utf-8"?>
<!-- Generator: Adobe Illustrator 24.0.2, SVG Export Plug-In . SVG Version: 6.00 Build 0)  -->
<svg version="1.1" id="Ebene_1" xmlns="http://www.w3.org/2000/svg" xmlns:xlink="http://www.w3.org/1999/xlink" x="0px" y="0px"
	 viewBox="0 0 85 85" style="enable-background:new 0 0 85 85;" xml:space="preserve">
<style type="text/css">
	.st0{fill:#99B9D5;}
</style>
<g>
	<path class="st0" d="M42.5,10.5c-8.2,0-16.4,3.1-22.7,9.4c-12.5,12.5-12.5,32.8,0,45.3c6.3,6.3,14.5,9.4,22.7,9.4
		s16.4-3.1,22.7-9.4c12.5-12.5,12.5-32.8,0-45.3C58.9,13.6,50.7,10.5,42.5,10.5z M31.2,53.9c-3-3-4.7-7.1-4.7-11.3s1.7-8.3,4.7-11.3
		s7.1-4.7,11.3-4.7s8.3,1.7,11.3,4.7s4.7,7.1,4.7,11.3s-1.7,8.3-4.7,11.3s-7.1,4.7-11.3,4.7S34.2,56.9,31.2,53.9z M54.9,17.4
		l-6.2,6.2c-2-0.7-4.1-1.1-6.2-1.1c-1.9,0-3.8,0.4-5.7,0.9l-6.3-6.3c3.7-1.7,7.7-2.7,11.9-2.7C46.9,14.5,51.1,15.5,54.9,17.4z
		 M17.1,30.6l6.3,6.3c-1.1,3.9-1.1,8,0.2,11.9L17.4,55c-1.9-3.8-2.9-8-2.9-12.4C14.5,38.3,15.4,34.3,17.1,30.6z M22.7,62.4
		L22.7,62.4L22.7,62.4L22.7,62.4z M31.1,68.1l6.3-6.3c1.7,0.4,3.4,0.7,5.1,0.7c1.9,0,3.8-0.4,5.7-0.9l6.3,6.3
		c-3.7,1.7-7.7,2.7-11.9,2.7C38.5,70.6,34.6,69.7,31.1,68.1z M67.9,54.4l-6.2-6.2c1-3.5,1.1-7.2,0.2-10.8l6.3-6.3
		C71.4,38.5,71.3,47.1,67.9,54.4z"/>
</g>
</svg>
