<?xml version="1.0" encoding="utf-8"?>
<!-- Generator: Adobe Illustrator 24.0.2, SVG Export Plug-In . SVG Version: 6.00 Build 0)  -->
<svg version="1.1" id="Ebene_1" xmlns="http://www.w3.org/2000/svg" xmlns:xlink="http://www.w3.org/1999/xlink" x="0px" y="0px"
	 viewBox="0 0 85 85" enable-background="new 0 0 85 85" xml:space="preserve">
<g>
	<path fill="#74AABE" d="M65.4,26.4c0.1-1.9,0.2-3.5,0.2-4.4c0.1-1.3-0.4-2.5-1.3-3.4c-0.9-0.9-2.1-1.4-3.3-1.4H10.2
		c-1.3,0-2.5,0.5-3.3,1.4s-1.3,2.1-1.3,3.4c0.3,6.1,2,37,10.8,44.8c0.8,0.8,1.9,1.2,3.1,1.2h32.3c1.1,0,2.2-0.4,3.1-1.2
		c2.8-2.5,4.8-7.2,6.4-12.7c2.3,0,3.9,0,4.1,0c7.9,0,14.2-5.7,14.2-13.8C79.5,29.2,70,26.4,65.4,26.4z M51.8,63.3H19.4
		c-7.8-7-9.2-41.6-9.2-41.6H61C61,21.7,59.6,56.3,51.8,63.3z M65.2,49.4l-1.5,0c-0.4,0-0.9,0-1.5,0c1.4-6.3,2.2-13.1,2.7-18.4h0.2
		c0.4,0,9.6,0.1,9.6,9.2C74.9,45.5,70.8,49.4,65.2,49.4z"/>
</g>
</svg>
