<?xml version="1.0" encoding="utf-8"?>
<!-- Generator: Adobe Illustrator 24.0.2, SVG Export Plug-In . SVG Version: 6.00 Build 0)  -->
<svg version="1.1" id="Ebene_1" xmlns="http://www.w3.org/2000/svg" xmlns:xlink="http://www.w3.org/1999/xlink" x="0px" y="0px"
	 viewBox="0 0 85 85" enable-background="new 0 0 85 85" xml:space="preserve">
<g>
	<path fill="#74AABE" d="M69.1,28.7c0,0-17.6,0-21,0v-12c0.2-6.5-1.3-11.1-6.8-11.1c-5.9,0-7.1,4.9-7.1,4.9
		c-1.1,17.4-18.5,22.8-18.5,22.8v37l6.7,0.3c17.5,0,7,9,35.7,9c21.8,0,22.2-19.2,22.2-32.3S74.4,28.7,69.1,28.7z M58.2,74.9
		c-14.6,0-17.7-2.3-20.4-4.4c-3.5-2.6-6.8-4.6-15.1-4.6c0,0,0,0,0,0l-2.3-0.1V36.4c5.8-2.7,17.2-9.9,18.4-25
		c0.2-0.4,0.8-1.2,2.5-1.2c0.4,0,0.9,0,1.2,0.3c0.2,0.2,1.1,1.4,1,6.2v12v4.6H48h21c3.3,0,6.7,4.8,6.7,13.9
		C75.8,65.1,73,74.9,58.2,74.9z M8.8,74.9c1.3,0,2.3-1,2.3-2.3V31.2c0-1.3-1-2.3-2.3-2.3s-2.3,1-2.3,2.3v41.4
		C6.5,73.8,7.5,74.9,8.8,74.9z"/>
</g>
</svg>
