<?xml version="1.0" encoding="utf-8"?>
<!-- Generator: Adobe Illustrator 24.0.2, SVG Export Plug-In . SVG Version: 6.00 Build 0)  -->
<svg version="1.1" id="Ebene_1" xmlns="http://www.w3.org/2000/svg" xmlns:xlink="http://www.w3.org/1999/xlink" x="0px" y="0px"
	 viewBox="0 0 85 85" style="enable-background:new 0 0 85 85;" xml:space="preserve">
<style type="text/css">
	.st0{fill:#99B9D5;}
</style>
<g>
	<path class="st0" d="M82,33.3C81.8,22,72.6,11.9,61.3,11.9c-6.6,0-12.4,3.4-16.2,8.5c-3.8-5-9.6-8.5-16.2-8.5
		C17.6,11.9,8.4,22,8.2,33.3l0,0c0,0.1,0,0.1,0,0.2c0,0.1,0,0.1,0,0.2c0,0.3,0.1,0.6,0.1,0.9c1,28.9,36.6,40.7,36.6,40.7
		s36-11.8,37.1-40.7c0-0.3,0.1-0.6,0.1-0.9c0-0.1,0-0.1,0-0.2C82,33.5,82.1,33.4,82,33.3L82,33.3z M77.3,34.4
		c-0.8,22.2-26.1,33.4-32.5,35.9c-6.3-2.5-31.2-13.7-32-36c0-0.2,0-0.4-0.1-0.7c0-0.1,0-0.2,0-0.3c0.2-9.2,7.5-16.9,16.1-16.9
		c4.7,0,9.3,2.4,12.5,6.6c0.9,1.2,2.2,1.8,3.7,1.8s2.8-0.7,3.7-1.8c3.2-4.2,7.7-6.6,12.5-6.6c8.6,0,16,7.7,16.1,16.9
		c0,0.1,0,0.2,0,0.3C77.4,33.9,77.4,34.2,77.3,34.4z"/>
</g>
</svg>
