<?xml version="1.0" encoding="utf-8"?>
<!-- Generator: Adobe Illustrator 24.0.2, SVG Export Plug-In . SVG Version: 6.00 Build 0)  -->
<svg version="1.1" id="Ebene_1" xmlns="http://www.w3.org/2000/svg" xmlns:xlink="http://www.w3.org/1999/xlink" x="0px" y="0px"
	 viewBox="0 0 85 85" style="enable-background:new 0 0 85 85;" xml:space="preserve">
<style type="text/css">
	.st0{fill:#EBEBEB;}
	.st1{fill:#FFFFFF;}
</style>
<circle class="st0" cx="42.5" cy="42.5" r="35.7"/>
<g>
	<path class="st1" d="M32.3,21.7c6.8,0,13.5,0,20.3,0c0.1,0,0.3,0.1,0.4,0.1c1.1,0.1,2.3,0.4,3.3,0.9c4.5,2.1,6.9,5.7,6.9,10.6
		c0.1,6.2,0,12.4,0,18.5c0,2.4-0.6,4.6-2,6.6c-2.4,3.3-5.6,5-9.7,5c-6.1,0-12.1,0-18.2,0c-0.8,0-1.6,0-2.3-0.2c-4.7-1-7.7-3.9-9-8.6
		c-0.2-0.6-0.2-1.2-0.3-1.9c0-6.8,0-13.5,0-20.3c0.1-0.4,0.1-0.9,0.2-1.3c1.1-4.7,3.9-7.7,8.6-9C31.1,21.9,31.7,21.8,32.3,21.7z
		 M59.6,42.5c0-3,0-6,0-9.1c0-1-0.1-1.9-0.4-2.8c-1.2-3.3-4-5.3-7.6-5.3c-6.1,0-12.1,0-18.2,0c-0.9,0-1.9,0.1-2.7,0.4
		c-3.3,1.1-5.3,4-5.3,7.6c0,6.1,0,12.1,0,18.2c0,0.9,0.1,1.9,0.4,2.7c1.1,3.3,4,5.3,7.6,5.3c6.1,0,12.2,0,18.3,0
		c2.7,0,4.9-1.1,6.5-3.3c1-1.4,1.5-3,1.5-4.8C59.6,48.6,59.6,45.5,59.6,42.5z"/>
	<path class="st1" d="M53.7,28.7c-1.5,0-2.7,1.2-2.7,2.7c0,1.5,1.2,2.7,2.7,2.7c1.5,0,2.7-1.2,2.7-2.7
		C56.4,29.9,55.1,28.7,53.7,28.7z"/>
	<path class="st1" d="M42.5,31.8c-5.9,0-10.7,4.8-10.7,10.7c0,5.9,4.8,10.7,10.7,10.7c5.9,0,10.7-4.8,10.7-10.7
		C53.2,36.6,48.4,31.8,42.5,31.8z M42.5,49.5c-3.9,0-7-3.2-7-7c0-3.9,3.2-7,7-7c3.9,0,7,3.2,7,7C49.5,46.4,46.3,49.5,42.5,49.5z"/>
</g>
</svg>
