<?xml version="1.0" encoding="utf-8"?>
<!-- Generator: Adobe Illustrator 24.0.0, SVG Export Plug-In . SVG Version: 6.00 Build 0)  -->
<svg version="1.1" id="Ebene_1" xmlns="http://www.w3.org/2000/svg" xmlns:xlink="http://www.w3.org/1999/xlink" x="0px" y="0px"
	 viewBox="0 0 63.1 32.2" style="enable-background:new 0 0 63.1 32.2;" xml:space="preserve">
<style type="text/css">
	.st0{fill:#DF2657;}
</style>
<path class="st0" d="M62.9,17c0.3-0.5,0.1-1.2-0.4-1.5c-0.5-0.3-1.2-0.1-1.5,0.4c-0.2,0.4-0.5,0.8-0.8,1.2c-0.1,0.1-0.1,0.2-0.2,0.2
	c0,0,0,0,0,0c0,0-0.1,0.1-0.1,0.1c-0.2,0.2-0.3,0.4-0.5,0.5c-0.1,0.1-0.1,0.1-0.2,0.2c0,0-0.1,0-0.1,0.1c-0.2,0.1-0.4,0.2-0.6,0.4
	c-0.1,0.1-0.2,0.1-0.3,0.2c0,0-0.1,0-0.1,0.1c0,0,0.1,0,0.1,0c0,0,0,0-0.1,0C58,19,57.8,19,57.6,19.1c0,0,0,0-0.1,0
	c-0.2-0.2-0.5-0.5-0.7-0.7c-2.7-2.6-5.7-4.8-9-6.5c0.8-0.4,1.5-1,2.1-1.6c1-1.1,1.7-2.3,2.4-3.6c0.3-0.5,0.1-1.2-0.4-1.5
	c-0.5-0.3-1.2-0.1-1.5,0.4c-0.3,0.6-0.6,1.1-0.9,1.7c-0.2,0.3-0.4,0.5-0.5,0.8c0,0,0,0,0,0c0,0,0,0,0,0c-0.1,0.1-0.1,0.2-0.2,0.2
	c-0.1,0.1-0.2,0.2-0.3,0.3C48.2,8.8,48,9,47.8,9.2c-0.1,0.1-0.2,0.2-0.3,0.3c0,0,0,0,0,0c0,0,0,0,0,0c-0.1,0-0.1,0.1-0.2,0.1
	c-0.3,0.2-0.5,0.3-0.8,0.5c-0.1,0.1-0.3,0.1-0.4,0.2c0,0-0.1,0-0.1,0.1c0,0-0.1,0-0.2,0.1c-0.1,0-0.2,0.1-0.4,0.2
	c-0.9-0.4-1.9-0.8-2.8-1.1c-2.7-1-5.5-1.6-8.3-2c1.5-1.8,2.6-4.1,2.6-6.4c0-0.6-0.5-1.1-1.1-1.1c-0.6,0-1.1,0.5-1.1,1.1
	c0,0.3,0,0.6,0,0.9c0,0,0,0.2,0,0.3c0,0.2-0.1,0.3-0.1,0.5c-0.1,0.3-0.2,0.6-0.3,0.9c0,0.1-0.1,0.1-0.1,0.2c0,0,0,0,0,0
	c0,0,0,0,0,0.1C34,4,34,4.2,33.9,4.3c-0.6,1.2-1.4,2.1-2.4,3c-3.3-0.2-6.7,0.2-9.9,1C16,9.7,10.8,12.7,6.5,16.4
	c-1.5,1.3-2.9,2.7-4.2,4.1c-0.7,0.8-1.4,1.6-2,2.4c0,0-0.1,0.1-0.1,0.1c-0.3,0.5-0.1,1.2,0.4,1.5c0,0,0.1,0,0.1,0.1
	c0.1,0.1,0.2,0.2,0.3,0.2c6.6,4,14.1,6.1,21.7,6.9c8.3,0.8,16.7,0.3,24.9-1.6c4.6-1.1,9-2.6,13.4-4.5c0.2-0.1,0.3-0.2,0.4-0.4
	c0.4-0.3,0.6-0.8,0.3-1.4c-0.7-1.1-1.6-2.1-2.4-3.1c0.7-0.3,1.3-0.7,1.8-1.2C61.8,18.9,62.4,18,62.9,17z M29.3,14.3
	c1.5,0.1,2.7,1.4,2.6,2.9c-0.1,1.5-1.4,2.7-2.9,2.6c-1.5-0.1-2.7-1.4-2.6-2.9C26.5,15.4,27.8,14.2,29.3,14.3z M36.4,29.8
	c-7.6,0.6-15.6,0.2-23-1.9c-3.8-1-7.4-2.6-10.7-4.5c0.1-0.2,0.3-0.4,0.5-0.5c1.1-1.3,2.3-2.5,3.5-3.7c3.8-3.5,8.3-6.4,13.2-8.1
	c2.2-0.7,4.4-1.2,6.6-1.4c-2.5,1.5-4.2,4.2-4.4,7.4c-0.3,5.2,3.6,9.6,8.8,10c5.2,0.3,9.6-3.6,10-8.8c0.2-3.2-1.2-6.1-3.5-7.9
	c0.8,0.2,1.7,0.4,2.5,0.6c2.9,0.9,5.7,2.1,8.3,3.6c2.3,1.3,4.2,2.7,6.1,4.4c1.4,1.3,2.7,2.6,4,4c0.2,0.3,0.4,0.5,0.6,0.8
	c0.1,0.1,0.2,0.2,0.2,0.3c0,0,0.1,0.1,0.1,0.1C51.9,27.2,44.2,29.2,36.4,29.8z"/>
</svg>
