<?xml version="1.0" encoding="UTF-8" standalone="no"?>
<svg
   xmlns:dc="http://purl.org/dc/elements/1.1/"
   xmlns:cc="http://creativecommons.org/ns#"
   xmlns:rdf="http://www.w3.org/1999/02/22-rdf-syntax-ns#"
   xmlns:svg="http://www.w3.org/2000/svg"
   xmlns="http://www.w3.org/2000/svg"
   xmlns:sodipodi="http://sodipodi.sourceforge.net/DTD/sodipodi-0.dtd"
   xmlns:inkscape="http://www.inkscape.org/namespaces/inkscape"
   version="1.1"
   viewBox="0 0 272.8 150"
   id="svg8"
   sodipodi:docname="hypnosezentrum-cuxhaven-footer-division-90.svg"
   width="272.79999"
   height="150"
   inkscape:version="0.92.3 (unknown)">
  <metadata
     id="metadata14">
    <rdf:RDF>
      <cc:Work
         rdf:about="">
        <dc:format>image/svg+xml</dc:format>
        <dc:type
           rdf:resource="http://purl.org/dc/dcmitype/StillImage" />
        <dc:title></dc:title>
      </cc:Work>
    </rdf:RDF>
  </metadata>
  <defs
     id="defs12" />
  <sodipodi:namedview
     pagecolor="#ffffff"
     bordercolor="#666666"
     borderopacity="1"
     objecttolerance="10"
     gridtolerance="10"
     guidetolerance="10"
     inkscape:pageopacity="0"
     inkscape:pageshadow="2"
     inkscape:window-width="1680"
     inkscape:window-height="992"
     id="namedview10"
     showgrid="false"
     inkscape:zoom="1.5249268"
     inkscape:cx="136.39999"
     inkscape:cy="57.794998"
     inkscape:window-x="0"
     inkscape:window-y="241"
     inkscape:window-maximized="1"
     inkscape:current-layer="svg8" />
  <g
     transform="rotate(90,119.155,153.645)"
     id="g6"
     style="fill:#df2657">
    <path
       d="m 29.2,0 c -0.8,0 -1.5,0.6 -1.6,1.4 0,0.3 0.1,0.6 0.2,0.8 0.7,3.2 3.8,42.5 0.2,57 -1.5,6.2 -6.7,16 -12.1,26.4 -9.6,18.3 -19.6,37.3 -14.7,45.1 1.5,2.5 4.3,3.7 8.3,3.6 7.9,-0.2 12.9,1.1 14.7,3.8 2.5,3.8 -0.7,10.8 -4,18.3 -0.4,1 -0.9,2 -1.3,3 -2,4.4 -3.7,7.9 -5.1,10.7 -3.7,7.4 -5.4,10.8 -1.6,14 3.9,3.3 9.3,14.1 9.8,21 0.1,1.8 -0.5,4.2 -1.3,7.5 -2.2,8.6 -6.4,24.6 -4.2,58.8 0.1,0.8 0.7,1.4 1.5,1.4 h 0.1 c 0.8,-0.1 1.5,-0.8 1.4,-1.6 -2.2,-33.7 1.9,-49.4 4.1,-57.8 0.9,-3.6 1.6,-6.1 1.4,-8.5 -0.6,-7.7 -6.5,-19.3 -10.9,-23.1 -1.8,-1.6 -1.3,-3 2.3,-10.4 1.4,-2.8 3.1,-6.3 5.1,-10.8 0.4,-1 0.9,-2 1.3,-3 3.7,-8.2 7.2,-16 3.8,-21.2 -2.5,-3.7 -7.9,-5.4 -17.2,-5.1 -2.9,0.1 -4.8,-0.7 -5.7,-2.2 -4,-6.4 6.4,-26.2 14.8,-42.1 C 24.2,76.4 29.4,66.5 31,60 34.6,45.3 31.9,2.7 30.4,0.7 30.1,0.3 29.7,0 29.2,0 Z"
       id="path2"
       inkscape:connector-curvature="0"
       style="fill:#df2657" />
    <path
       d="m 115,45.1 c -0.3,-0.3 -0.7,-0.5 -1.2,-0.4 -0.1,0 -6.4,0.4 -15.2,-1 -0.1,0 -0.2,-0.1 -0.3,-0.1 H 98.1 C 89.3,42.2 78,38.9 67.8,31.6 67.2,31.2 66.4,31.2 65.9,31.7 L 57.4,40 c -0.6,0.6 -0.6,1.5 0,2.1 0.6,0.6 1.5,0.6 2.1,0 l 7.6,-7.3 c 3.8,2.6 7.8,4.7 11.7,6.4 l -5,9.5 c -0.4,0.7 -0.1,1.6 0.6,2 0.2,0.1 0.5,0.2 0.7,0.2 0.5,0 1.1,-0.3 1.3,-0.8 l 5.2,-9.8 c 5.3,2 10.3,3.3 14.9,4.1 L 95,57.2 c -0.1,0.8 0.5,1.6 1.3,1.7 h 0.2 c 0.7,0 1.4,-0.5 1.5,-1.3 L 99.4,47 c 5.8,0.8 10.5,0.9 12.9,0.8 L 111.2,59 c -0.1,0.8 0.5,1.6 1.3,1.6 h 0.2 c 0.8,0 1.4,-0.6 1.5,-1.4 l 1.3,-12.9 c 0,-0.4 -0.2,-0.8 -0.5,-1.2 z"
       id="path4"
       inkscape:connector-curvature="0"
       style="fill:#df2657" />
  </g>
</svg>
