<?xml version="1.0" encoding="utf-8"?>
<!-- Generator: Adobe Illustrator 24.0.0, SVG Export Plug-In . SVG Version: 6.00 Build 0)  -->
<svg version="1.1" id="Ebene_1" xmlns="http://www.w3.org/2000/svg" xmlns:xlink="http://www.w3.org/1999/xlink" x="0px" y="0px"
	 viewBox="0 0 91.3 90" style="enable-background:new 0 0 91.3 90;" xml:space="preserve">
<style type="text/css">
	.st0{fill:#C79499;}
	.st1{fill:#DF2657;}
</style>
<g>
	<path class="st0" d="M54.8,20.9c0.5-0.2,1.1-0.4,1.8-0.5c4.2-1,9.8-1.3,13.1,0.3c-0.4,0.1-1.1,0.2-2,0.2c-2.3-0.1-4.5-0.1-6.5-0.1
		C58.7,20.8,56.5,20.9,54.8,20.9 M65.2,23.5c0.5-0.1,1,0.3,1.1,0.9c0.1,0.5-0.3,1-0.9,1.1c-0.5,0.1-1-0.3-1.1-0.9
		C64.3,24.1,64.7,23.6,65.2,23.5 M81.3,55.2c-0.1-0.1-0.3-0.2-0.5-0.3c-1.2-0.8-1.7-1.9-1.9-2.4c-0.2-0.7-0.2-1.1-0.2-1.4
		c0.1,0.1,0.3,0.2,0.4,0.3C79.8,52,80.6,53.3,81.3,55.2 M91.1,30.2c-0.3-4.3-1.6-11.8-6.1-13.5c-6.3-2.4-10,1.9-13.1,5.6
		c-2.4,2.8-4.6,5.5-7.7,5.5c-5.1,0-8.8-2.9-10.6-4.8c2-0.1,5.3-0.2,9-0.1c-0.4,0.5-0.6,1.2-0.5,1.9c0.1,1.5,1.4,2.5,2.9,2.4
		c1.5-0.2,2.5-1.4,2.4-2.9c0-0.5-0.2-0.9-0.5-1.2c0.2,0,0.5,0,0.7,0c0,0,0.1,0,0.1,0c1.8-0.1,4.2-0.4,4.7-1.9
		c0.2-0.7-0.1-1.4-0.7-1.8c-4.8-3.3-14.8-1.8-18.8-0.1c-1.7,0.7-2.6,1.6-2.7,2.5c0,0.3,0,0.5,0.2,0.7c0,0.1,0.1,0.1,0.1,0.2
		c0.2,0.3,5,7.3,13.7,7.3c0,0,0.1,0,0.1,0c4.1,0,6.8-3.2,9.4-6.2c3.1-3.7,5.8-6.9,10.7-5c2.4,0.9,4.2,5.3,4.7,11.6
		c0.9,10.5-1.8,22.5-5.5,24.7c-0.8-2.5-1.9-4.4-2.9-5.3c-1.2-1.1-2.1-1.1-2.7-0.9c-0.7,0.3-1.2,1-1.4,1.9c-0.2,1.7,0.7,4.3,3,5.8
		c0.8,0.6,1.6,0.8,2.3,0.9c0.2,1.4,0.3,3,0.2,4.7c-0.5,5.1-3.7,12.6-15.5,19.7c-5,3-11,4.9-17.2,5.6c-1,0.1-2,0.2-3.1,0.2
		c0.1,0.7,0.1,1.4,0.2,2.2h0c1,0,2.1-0.1,3.1-0.2c6.5-0.7,12.7-2.7,18.1-5.9c12.6-7.6,15.9-15.8,16.5-21.3c0.2-1.9,0.1-3.6-0.2-5.2
		c0.2-0.1,0.4-0.2,0.5-0.3C89.5,54.2,92,40.6,91.1,30.2"/>
	<g>
		<path class="st1" d="M46.5,90c-1-10.8,0.1-16.9,0.7-19.9c0.3-1.2,0.5-2.1,0.4-3c-0.3-2.7-2.4-6.5-4-7.8c-0.2-0.2-0.2-0.5,0.8-2.7
			c0.4-0.9,1-2.1,1.6-3.6c0.1-0.3,0.3-0.7,0.4-1c1.2-2.9,2.3-5.6,1-7.5c-1-1.4-2.9-1.9-6.2-1.8c-0.7,0-1.2-0.1-1.4-0.4
			c-1.2-1.8,2.2-8.7,4.4-13.2c1.7-3.5,3.3-6.8,3.8-9c0.9-4.4-0.1-18.7-0.9-19.7C47,0.2,46.7,0,46.4,0c0,0,0,0,0,0c0,0,0,0,0,0
			c-2-0.1-4,0-6,0.2c-12,1.2-22.7,7.1-30.3,16.4C2.5,26-1,37.7,0.2,49.6c1.2,11.2,6.5,21.5,14.9,29C23.4,86,34,90,45,90
			C45.1,90,46.5,90,46.5,90z M2.4,49.4C1.2,38,4.5,26.9,11.8,18C19,9.1,29.2,3.6,40.6,2.4c1.6-0.2,3.3-0.2,4.9-0.2
			c0.4,2.9,1.4,13.5,0.5,17.6c-0.4,1.9-2,5.2-3.6,8.5c-3.7,7.6-6,12.8-4.3,15.4c0.4,0.7,1.4,1.5,3.3,1.4c3.1-0.2,4,0.5,4.3,0.8
			c0.7,0.9-0.3,3.2-1.2,5.4c-0.1,0.3-0.3,0.7-0.4,1c-0.6,1.4-1.1,2.6-1.5,3.5c-1.1,2.5-1.8,4-0.2,5.3c1.1,0.9,3,4.1,3.2,6.3
			c0.1,0.5-0.1,1.2-0.4,2.3c-0.6,2.7-1.8,7.8-0.9,18.2C22.5,87.5,4.6,71.2,2.4,49.4z"/>
		<path class="st1" d="M35.4,58.9c-0.6,0.1-1,0.6-1,1.2l0.2,2.2c-0.6,0-1.3,0-2.1,0.1l-0.3-2.2c-0.1-0.6-0.6-1-1.2-0.9
			c-0.6,0.1-1,0.6-0.9,1.2l0.3,2.2c-0.9,0.2-1.9,0.4-2.9,0.8l-1.1-2c-0.3-0.5-0.9-0.7-1.5-0.5c-0.5,0.3-0.7,0.9-0.5,1.5l1,1.8
			c-0.7,0.3-1.4,0.7-2,1.1L21.9,64c-0.4-0.4-1.1-0.4-1.5,0c-0.4,0.4-0.4,1.1,0,1.5l2.3,2.2c0.2,0.2,0.5,0.3,0.7,0.3
			c0.2,0,0.4-0.1,0.6-0.2c1-0.7,2.1-1.3,3.2-1.8c0.1,0,0.3,0,0.4-0.1c0.1,0,0.1-0.1,0.2-0.1c1.4-0.5,2.8-0.9,4-1.1c0,0,0,0,0.1,0
			c0,0,0.1,0,0.1,0c2.2-0.4,3.8-0.2,3.9-0.2c0.3,0,0.6-0.1,0.9-0.3c0.2-0.2,0.3-0.5,0.3-0.9l-0.3-3.4C36.5,59.3,36,58.8,35.4,58.9z"
			/>
	</g>
</g>
</svg>
