<?xml version="1.0" encoding="utf-8"?>
<!-- Generator: Adobe Illustrator 24.0.0, SVG Export Plug-In . SVG Version: 6.00 Build 0)  -->
<svg version="1.1" id="Ebene_1" xmlns="http://www.w3.org/2000/svg" xmlns:xlink="http://www.w3.org/1999/xlink" x="0px" y="0px"
	 viewBox="0 0 58.8 60.2" style="enable-background:new 0 0 58.8 60.2;" xml:space="preserve">
<style type="text/css">
	.st0{fill:#DF2657;}
</style>
<path class="st0" d="M58.4,10.4c-0.7-2.8-2.8-5-5.7-5.5c-2.8-0.4-5.6,0.4-8,1.7c-4.8,2.6-8.7,6.5-11.9,11
	c-0.3-6.8-4.1-13.5-10.4-16.3c-7-3.1-16.2-0.5-20.1,6.2C1,9.6,0.4,12,0.2,14.5c-0.2,2.3-0.3,4.8,0,7.1c0.4,3.4,1.6,6.7,3.2,9.7
	c3.6,6.5,9.2,11.9,15,16.6c5.1,4.1,10.5,7.8,16.1,11.2c0.4,0.3,0.8,0.5,1.2,0.8c0.1,0.1,0.2,0.1,0.3,0.2c0.6,0.3,1.2-0.1,1.5-0.6
	c4.2-4.3,8-9.1,11.2-14.2c3.3-5.2,5.9-10.9,7.7-16.8c0.9-3,1.5-6,1.9-9.1C58.7,16.5,59.1,13.3,58.4,10.4z M56.6,14.2
	c0,1.4-0.2,2.9-0.3,4.3c-0.3,2.8-0.9,5.6-1.7,8.3c-1.6,5.6-3.9,11-6.9,16c-3.2,5.4-7.1,10.4-11.5,14.9c-4.7-2.9-9.4-5.9-13.8-9.2
	c-5.6-4.3-11.1-9.1-15.2-14.9c-1.9-2.7-3.4-5.5-4.3-8.7c-0.5-1.6-0.7-3-0.7-4.6c-0.1-2.4-0.1-4.9,0.3-7.3c0.4-2,1.1-4,2.4-5.6
	C6,6,7.3,5,8.7,4.1c2.9-1.7,6.5-2.4,9.9-1.8c7.4,1.4,12.2,8.9,12.1,16.1c0,0.9-0.1,1.8-0.3,2.7c-0.1,0.6,0.2,1.2,0.8,1.3
	c0.5,0.1,1.1-0.1,1.3-0.6c0.1-0.1,0.1-0.1,0.2-0.2c2.9-4.7,6.4-9,11.1-12c2.1-1.4,4.5-2.7,7.1-2.8c2.4-0.1,4.6,0.9,5.4,3.3
	C56.6,11.5,56.6,12.9,56.6,14.2z"/>
</svg>
