<svg version="1.1" viewBox="0 0 115.4 272.9" xmlns="http://www.w3.org/2000/svg">
  <path fill="#DF2657" d="m29.2 0c-0.8 0-1.5 0.6-1.6 1.4 0 0.3 0.1 0.6 0.2 0.8 0.7 3.2 3.8 42.5 0.2 57-1.5 6.2-6.7 16-12.1 26.4-9.6 18.3-19.6 37.3-14.7 45.1 1.5 2.5 4.3 3.7 8.3 3.6 7.9-0.2 12.9 1.1 14.7 3.8 2.5 3.8-0.7 10.8-4 18.3-0.4 1-0.9 2-1.3 3-2 4.4-3.7 7.9-5.1 10.7-3.7 7.4-5.4 10.8-1.6 14 3.9 3.3 9.3 14.1 9.8 21 0.1 1.8-0.5 4.2-1.3 7.5-2.2 8.6-6.4 24.6-4.2 58.8 0.1 0.8 0.7 1.4 1.5 1.4h0.1c0.8-0.1 1.5-0.8 1.4-1.6-2.2-33.7 1.9-49.4 4.1-57.8 0.9-3.6 1.6-6.1 1.4-8.5-0.6-7.7-6.5-19.3-10.9-23.1-1.8-1.6-1.3-3 2.3-10.4 1.4-2.8 3.1-6.3 5.1-10.8 0.4-1 0.9-2 1.3-3 3.7-8.2 7.2-16 3.8-21.2-2.5-3.7-7.9-5.4-17.2-5.1-2.9 0.1-4.8-0.7-5.7-2.2-4-6.4 6.4-26.2 14.8-42.1 5.7-10.6 10.9-20.5 12.5-27 3.6-14.7 0.9-57.3-0.6-59.3-0.3-0.4-0.7-0.7-1.2-0.7z"/>
  <path fill="#DF2657" d="m115 45.1c-0.3-0.3-0.7-0.5-1.2-0.4-0.1 0-6.4 0.4-15.2-1-0.1 0-0.2-0.1-0.3-0.1h-0.2c-8.8-1.4-20.1-4.7-30.3-12-0.6-0.4-1.4-0.4-1.9 0.1l-8.5 8.3c-0.6 0.6-0.6 1.5 0 2.1s1.5 0.6 2.1 0l7.6-7.3c3.8 2.6 7.8 4.7 11.7 6.4l-5 9.5c-0.4 0.7-0.1 1.6 0.6 2 0.2 0.1 0.5 0.2 0.7 0.2 0.5 0 1.1-0.3 1.3-0.8l5.2-9.8c5.3 2 10.3 3.3 14.9 4.1l-1.5 10.8c-0.1 0.8 0.5 1.6 1.3 1.7h0.2c0.7 0 1.4-0.5 1.5-1.3l1.4-10.6c5.8 0.8 10.5 0.9 12.9 0.8l-1.1 11.2c-0.1 0.8 0.5 1.6 1.3 1.6h0.2c0.8 0 1.4-0.6 1.5-1.4l1.3-12.9c0-0.4-0.2-0.8-0.5-1.2z"/>
</svg>
