<?xml version="1.0" encoding="utf-8"?>
<!-- Generator: Adobe Illustrator 24.0.0, SVG Export Plug-In . SVG Version: 6.00 Build 0)  -->
<svg version="1.1" id="Ebene_1" xmlns="http://www.w3.org/2000/svg" xmlns:xlink="http://www.w3.org/1999/xlink" x="0px" y="0px"
	 viewBox="0 0 70.5 64.7" style="enable-background:new 0 0 70.5 64.7;" xml:space="preserve">
<style type="text/css">
	.st0{fill:#DF2657;}
</style>
<g>
	<path class="st0" d="M69.5,24.8c-6.8-0.6-13.5-1.1-20.3-1.7c-0.8-0.1-1.6-0.1-2.4-0.2c-0.5-0.1-1.1-0.2-1.4-0.6
		c-0.4-0.4-0.5-1.1-0.6-1.6c-0.1-0.7-0.2-1.4-0.3-2.1c-0.3-2.8-0.1-5.7-0.2-8.6c-0.1-3.3-0.5-6.5-2.1-9.5c-0.3-0.5-1-0.7-1.5-0.4
		c-3.1,2.2-5.8,4.7-8.4,7.6c-2.2,2.5-4.3,5.1-6.7,7.4c-1.5,1.5-3.2,2.8-4.9,4.1c-3.1-0.6-6.2-0.7-9.4-0.9c-2.9-0.1-5.7-0.2-8.6-0.2
		c-0.6,0-1.2,0-1.7,0c-0.7,0-1.4,0.9-0.9,1.6c3.7,4.9,7.8,9.6,12.2,13.9c1.4,1.4,2.9,2.7,4.4,3.9c-4.1,5.3-7.6,11-10.3,17.1
		c-0.4,0.8,0.2,1.9,1.2,1.6c6.8-2,13.6-3.9,20.5-5.9c1.6-0.5,3.2-1,4.9-1.3c1.6-0.3,2.9,0,4.2,1c1.3,0.9,2.4,2,3.5,3.1
		c1.3,1.2,2.7,2.4,4,3.6c2.9,2.6,5.9,5.2,8.8,7.8c0.8,0.7,2,0,1.8-1c-1.2-6.3-2.5-12.6-3.7-18.9c-0.2-0.8-0.3-1.5-0.5-2.3
		c-0.1-0.7-0.3-1.4-0.3-2.1c0.1-1.1,1.1-1.9,2-2.5c2.5-1.7,5.2-3.3,7.8-4.9c3.1-1.9,6.2-3.9,9.3-5.8C71,26.2,70.5,24.9,69.5,24.8z
		 M2.1,18.8C2.1,18.8,2.1,18.8,2.1,18.8C2.1,18.8,2.1,18.9,2.1,18.8C2.2,18.9,2.1,18.9,2.1,18.8z M2.1,18.7C2,18.7,2,18.7,2.1,18.7
		C2,18.7,2,18.7,2.1,18.7z M60.3,30.3c-2.8,1.7-5.6,3.4-8.4,5.3c-1.1,0.7-2.2,1.6-2.7,2.7c-0.7,1.5-0.3,3.1,0,4.7
		c0.6,3.3,1.3,6.5,1.9,9.8c0.5,2.6,1,5.3,1.6,7.9c-1.9-1.7-3.8-3.3-5.7-5c-1.4-1.2-2.7-2.4-4.1-3.6c-1.3-1.1-2.5-2.3-3.9-3.4
		c-1.3-1-2.7-1.8-4.4-1.9c-1.8-0.1-3.5,0.5-5.2,1c-3.5,1-7,2-10.4,3c-3.2,0.9-6.4,1.8-9.6,2.8c2.6-5.4,5.8-10.5,9.5-15.2
		c0.1-0.1,0.1-0.2,0.2-0.2c0.1-0.1,0.1-0.1,0.2-0.2c0.3-0.5,0.1-1.1-0.4-1.5c-3.3-2.4-6.2-5.4-8.9-8.3c-2.3-2.5-4.5-5.1-6.6-7.7
		c4.1,0,8.2,0.1,12.3,0.4c1.7,0.1,3.2,0.3,4.9,0.6c0.2,0,0.3,0,0.5,0c0.2,0,0.5,0,0.7-0.1c3.1-2.2,5.8-4.7,8.4-7.6
		c2.2-2.5,4.3-5.1,6.7-7.4C38,5,39.4,3.8,40.9,2.7c2.1,5,1,10.9,1.5,16.2c0.1,1.4,0.2,3.1,1,4.3c0.9,1.4,2.4,1.7,3.9,1.9
		c3.5,0.3,6.9,0.6,10.4,0.9c2.8,0.2,5.6,0.5,8.5,0.7C64.2,27.9,62.3,29.1,60.3,30.3z"/>
</g>
</svg>
