<?xml version="1.0" encoding="utf-8"?>
<!-- Generator: Adobe Illustrator 24.0.0, SVG Export Plug-In . SVG Version: 6.00 Build 0)  -->
<svg version="1.1" id="Ebene_1" xmlns="http://www.w3.org/2000/svg" xmlns:xlink="http://www.w3.org/1999/xlink" x="0px" y="0px"
	 viewBox="0 0 148 29.6" style="enable-background:new 0 0 148 29.6;" xml:space="preserve">
<style type="text/css">
	.st0{fill:#DF2657;}
</style>
<g>
	<path class="st0" d="M48.5,20.5c-0.7,0-1.4,0.1-2.1,0.3c-0.7,0.2-1.2,0.4-1.7,0.8l0.9,1.8c0.3-0.2,0.7-0.4,1.1-0.6
		c0.4-0.1,0.9-0.2,1.4-0.2c0.7,0,1.2,0.1,1.5,0.4c0.3,0.3,0.5,0.7,0.5,1.3h-2c-1.3,0-2.2,0.2-2.8,0.7c-0.6,0.5-0.9,1.1-0.9,1.9
		c0,0.5,0.1,1,0.4,1.4c0.3,0.4,0.6,0.7,1.1,0.9c0.5,0.2,1.1,0.3,1.7,0.3c1.3,0,2.2-0.4,2.7-1.2v1.1h2.4v-5c0-1.3-0.4-2.3-1.1-2.9
		C50.9,20.8,49.8,20.5,48.5,20.5z M50.1,26.6c-0.1,0.4-0.4,0.7-0.7,0.9c-0.3,0.2-0.7,0.3-1.2,0.3c-0.4,0-0.8-0.1-1-0.3
		c-0.3-0.2-0.4-0.4-0.4-0.8c0-0.7,0.5-1,1.6-1h1.7V26.6z"/>
	<polygon class="st0" points="58.6,26.6 56.2,20.7 53.6,20.7 57.2,29.4 59.8,29.4 63.5,20.7 61.1,20.7 	"/>
	<path class="st0" d="M38.9,20.5c-0.6,0-1.1,0.1-1.6,0.3s-0.9,0.4-1.2,0.8v-4.2h-2.5v12h2.5v-4.3c0-0.8,0.2-1.4,0.6-1.8
		c0.4-0.4,0.9-0.6,1.5-0.6c0.6,0,1,0.2,1.3,0.5c0.3,0.3,0.5,0.9,0.5,1.5v4.6h2.5v-5c0-1.3-0.3-2.2-1-2.9
		C40.9,20.8,40,20.5,38.9,20.5z"/>
	<polygon class="st0" points="32,20.7 29.3,20.7 27.4,23.2 25.6,20.7 22.7,20.7 26,25 22.6,29.4 25.4,29.4 27.4,26.7 29.3,29.4 
		32.2,29.4 28.8,24.9 	"/>
	<path class="st0" d="M4.4,20.5c0.6-0.3,1.2-0.5,1.9-0.5c1.1,0,2.1,0.4,2.9,1.3l1.7-1.6c-0.5-0.6-1.2-1.1-2-1.5
		C8,18,7.1,17.8,6.2,17.8c-1.2,0-2.2,0.3-3.2,0.8c-0.9,0.5-1.7,1.2-2.2,2.1c-0.5,0.9-0.8,1.9-0.8,3c0,1.1,0.3,2.1,0.8,3
		c0.5,0.9,1.3,1.6,2.2,2.1c0.9,0.5,2,0.8,3.1,0.8c1,0,1.9-0.2,2.7-0.5c0.8-0.3,1.5-0.8,2-1.5L9.1,26c-0.8,0.9-1.7,1.3-2.9,1.3
		c-0.7,0-1.3-0.2-1.9-0.5s-1-0.7-1.3-1.3c-0.3-0.6-0.5-1.2-0.5-1.9c0-0.7,0.2-1.3,0.5-1.9C3.4,21.3,3.9,20.8,4.4,20.5z"/>
	<path class="st0" d="M18.7,25c0,0.8-0.2,1.4-0.6,1.8c-0.4,0.4-0.9,0.6-1.5,0.6c-1.2,0-1.8-0.7-1.8-2.1v-4.6h-2.5v4.9
		c0,1.3,0.3,2.3,1,2.9c0.7,0.7,1.6,1,2.7,1c0.5,0,1-0.1,1.5-0.3c0.5-0.2,0.9-0.5,1.2-0.9v1h2.4v-8.7h-2.5V25z"/>
	<path class="st0" d="M80.3,20.5c-0.6,0-1.1,0.1-1.6,0.3c-0.5,0.2-0.9,0.5-1.2,0.9v-1H75v8.7h2.5v-4.3c0-0.8,0.2-1.4,0.6-1.8
		c0.4-0.4,0.9-0.6,1.5-0.6c0.6,0,1,0.2,1.3,0.5c0.3,0.3,0.5,0.9,0.5,1.5v4.6h2.5v-5c0-1.3-0.3-2.2-1-2.9
		C82.2,20.8,81.4,20.5,80.3,20.5z"/>
	<path class="st0" d="M70.9,21.1c-0.7-0.4-1.5-0.6-2.3-0.6c-0.9,0-1.7,0.2-2.4,0.6c-0.7,0.4-1.3,0.9-1.7,1.6
		c-0.4,0.7-0.6,1.5-0.6,2.3c0,0.9,0.2,1.6,0.6,2.3c0.4,0.7,1,1.2,1.8,1.6c0.8,0.4,1.6,0.6,2.6,0.6c1.6,0,2.8-0.5,3.6-1.4l-1.3-1.5
		c-0.3,0.3-0.6,0.5-1,0.6c-0.4,0.1-0.8,0.2-1.2,0.2c-0.7,0-1.2-0.2-1.7-0.5c-0.4-0.3-0.7-0.7-0.8-1.3H73c0-0.4,0-0.6,0-0.7
		c0-0.9-0.2-1.7-0.6-2.4C72.1,22,71.6,21.4,70.9,21.1z M66.4,24.3c0.1-0.6,0.3-1,0.7-1.3c0.4-0.3,0.9-0.5,1.4-0.5
		c0.6,0,1,0.2,1.4,0.5c0.4,0.3,0.6,0.8,0.7,1.3H66.4z"/>
	<path class="st0" d="M17.7,8.5l-2.4-5.9h-2.6l3.8,8.8l0,0.1c-0.2,0.4-0.4,0.7-0.6,0.8c-0.2,0.2-0.5,0.3-0.8,0.3
		c-0.2,0-0.5,0-0.8-0.1c-0.3-0.1-0.5-0.2-0.7-0.4l-0.9,1.8c0.3,0.2,0.6,0.4,1.1,0.6c0.4,0.1,0.9,0.2,1.3,0.2c0.8,0,1.5-0.2,2.1-0.6
		c0.6-0.4,1.1-1.1,1.5-2.1l3.9-9.3h-2.4L17.7,8.5z"/>
	<polygon class="st0" points="8.5,4.5 3.3,4.5 3.3,0 0.7,0 0.7,11.4 3.3,11.4 3.3,6.7 8.5,6.7 8.5,11.4 11.1,11.4 11.1,0 8.5,0 	"/>
	<path class="st0" d="M60.7,9.6c-0.5,0-1.1-0.1-1.6-0.2c-0.6-0.2-1-0.4-1.4-0.6l-0.8,1.8c0.4,0.3,1,0.5,1.7,0.7
		c0.7,0.2,1.4,0.3,2.1,0.3c0.9,0,1.6-0.1,2.2-0.3c0.6-0.2,1.1-0.6,1.4-1c0.3-0.4,0.5-0.9,0.5-1.4c0-0.6-0.2-1.1-0.5-1.5
		c-0.3-0.4-0.7-0.6-1.2-0.7c-0.5-0.1-1-0.3-1.8-0.4c-0.6-0.1-1.1-0.2-1.4-0.3c-0.3-0.1-0.4-0.3-0.4-0.6c0-0.2,0.1-0.4,0.4-0.6
		c0.3-0.2,0.7-0.2,1.2-0.2c0.9,0,1.7,0.2,2.5,0.6l0.8-1.8c-0.4-0.2-0.9-0.4-1.5-0.6c-0.6-0.1-1.2-0.2-1.8-0.2
		c-0.8,0-1.6,0.1-2.2,0.4c-0.6,0.2-1.1,0.6-1.4,1c-0.3,0.4-0.5,0.9-0.5,1.5c0,0.7,0.2,1.2,0.5,1.5c0.3,0.4,0.7,0.6,1.2,0.7
		c0.5,0.1,1.1,0.3,1.8,0.4c0.6,0.1,1.1,0.2,1.3,0.3c0.3,0.1,0.4,0.3,0.4,0.5C62.3,9.3,61.8,9.6,60.7,9.6z"/>
	<path class="st0" d="M92.3,3c-0.7-0.4-1.5-0.6-2.3-0.6c-0.9,0-1.7,0.2-2.4,0.6c-0.7,0.4-1.3,0.9-1.7,1.6c-0.4,0.7-0.6,1.5-0.6,2.3
		c0,0.9,0.2,1.6,0.6,2.3c0.4,0.7,1,1.2,1.8,1.6c0.8,0.4,1.6,0.6,2.6,0.6c1.6,0,2.8-0.5,3.6-1.4l-1.3-1.5c-0.3,0.3-0.6,0.5-1,0.6
		c-0.4,0.1-0.8,0.2-1.2,0.2c-0.7,0-1.2-0.2-1.7-0.5c-0.4-0.3-0.7-0.7-0.8-1.3h6.6c0-0.4,0-0.6,0-0.7c0-0.9-0.2-1.7-0.6-2.4
		C93.5,3.9,93,3.4,92.3,3z M87.8,6.2c0.1-0.6,0.3-1,0.7-1.3c0.4-0.3,0.9-0.5,1.4-0.5c0.6,0,1,0.2,1.4,0.5s0.6,0.8,0.7,1.3H87.8z"/>
	<path class="st0" d="M117.4,3.8V2.6h-2.4v8.7h2.5V7.2c0-0.8,0.2-1.4,0.6-1.8c0.4-0.4,1-0.6,1.7-0.6c0.1,0,0.3,0,0.6,0V2.5
		c-0.7,0-1.3,0.1-1.8,0.3C118.1,3,117.7,3.4,117.4,3.8z"/>
	<path class="st0" d="M111.6,9.5c-0.3,0-0.6-0.1-0.8-0.3c-0.2-0.2-0.3-0.5-0.3-0.9V4.8h2.2V2.8h-2.2V0.7H108v2.1h-1.3v1.9h1.3v3.6
		c0,1,0.3,1.8,0.9,2.3c0.6,0.5,1.4,0.8,2.4,0.8c0.4,0,0.8,0,1.1-0.1c0.4-0.1,0.7-0.2,0.9-0.4l-0.7-1.8C112.4,9.4,112,9.5,111.6,9.5z
		"/>
	<path class="st0" d="M101.7,2.5c-0.6,0-1.1,0.1-1.6,0.3c-0.5,0.2-0.9,0.5-1.2,0.9v-1h-2.4v8.7h2.5V7c0-0.8,0.2-1.4,0.6-1.8
		c0.4-0.4,0.9-0.6,1.5-0.6c0.6,0,1,0.2,1.3,0.5c0.3,0.3,0.5,0.9,0.5,1.5v4.6h2.5v-5c0-1.3-0.3-2.2-1-2.9
		C103.6,2.8,102.8,2.5,101.7,2.5z"/>
	<path class="st0" d="M147.1,3.5c-0.6-0.6-1.5-1-2.6-1c-0.6,0-1.2,0.1-1.8,0.4c-0.5,0.2-1,0.6-1.4,1.1c-0.3-0.5-0.7-0.8-1.2-1.1
		s-1.1-0.4-1.7-0.4c-0.6,0-1.1,0.1-1.5,0.3c-0.5,0.2-0.9,0.5-1.2,0.8v-1h-2.4v8.7h2.5V7c0-0.8,0.2-1.3,0.5-1.7
		c0.3-0.4,0.8-0.6,1.4-0.6c1.1,0,1.7,0.7,1.7,2.1v4.6h2.5V7c0-0.8,0.2-1.3,0.5-1.7c0.3-0.4,0.8-0.6,1.4-0.6c0.5,0,0.9,0.2,1.2,0.5
		c0.3,0.3,0.4,0.9,0.4,1.5v4.6h2.5v-5C148,5.1,147.7,4.1,147.1,3.5z"/>
	<path class="st0" d="M128.3,6.9c0,0.8-0.2,1.4-0.6,1.8c-0.4,0.4-0.9,0.6-1.5,0.6c-1.2,0-1.8-0.7-1.8-2.1V2.6h-2.5v4.9
		c0,1.3,0.3,2.3,1,2.9c0.7,0.7,1.6,1,2.7,1c0.5,0,1-0.1,1.5-0.3c0.5-0.2,0.9-0.5,1.2-0.9v1h2.4V2.6h-2.5V6.9z"/>
	<path class="st0" d="M40.7,2.5c-0.6,0-1.1,0.1-1.6,0.3c-0.5,0.2-0.9,0.5-1.2,0.9v-1h-2.4v8.7h2.5V7c0-0.8,0.2-1.4,0.6-1.8
		c0.4-0.4,0.9-0.6,1.5-0.6c0.6,0,1,0.2,1.3,0.5c0.3,0.3,0.5,0.9,0.5,1.5v4.6h2.5v-5c0-1.3-0.3-2.2-1-2.9C42.6,2.8,41.7,2.5,40.7,2.5
		z"/>
	<polygon class="st0" points="84,4.2 84,2.6 76.5,2.6 76.5,4.6 80.8,4.6 76.4,9.8 76.4,11.4 84.1,11.4 84.1,9.4 79.6,9.4 	"/>
	<path class="st0" d="M55.1,9.3c0.4-0.7,0.6-1.5,0.6-2.3c0-0.9-0.2-1.6-0.6-2.3c-0.4-0.7-1-1.2-1.7-1.6c-0.7-0.4-1.5-0.6-2.5-0.6
		c-0.9,0-1.7,0.2-2.5,0.6c-0.7,0.4-1.3,0.9-1.7,1.6c-0.4,0.7-0.6,1.5-0.6,2.3c0,0.9,0.2,1.6,0.6,2.3c0.4,0.7,1,1.2,1.7,1.6
		c0.7,0.4,1.6,0.6,2.5,0.6c0.9,0,1.7-0.2,2.5-0.6C54.1,10.5,54.7,10,55.1,9.3z M52.5,8.8c-0.4,0.4-0.9,0.7-1.6,0.7
		c-0.6,0-1.2-0.2-1.6-0.7c-0.4-0.4-0.6-1-0.6-1.8c0-0.7,0.2-1.3,0.6-1.8c0.4-0.4,1-0.7,1.6-0.7c0.6,0,1.2,0.2,1.6,0.7
		c0.4,0.4,0.6,1,0.6,1.8C53.1,7.7,52.9,8.3,52.5,8.8z"/>
	<path class="st0" d="M31.3,3.1c-0.7-0.4-1.4-0.6-2.2-0.6c-1.2,0-2.1,0.4-2.7,1.1v-1h-2.4v11.9h2.5v-4.1c0.6,0.7,1.5,1.1,2.6,1.1
		c0.8,0,1.5-0.2,2.2-0.6c0.7-0.4,1.2-0.9,1.6-1.6c0.4-0.7,0.6-1.5,0.6-2.4c0-0.9-0.2-1.7-0.6-2.4C32.5,4,31.9,3.4,31.3,3.1z
		 M30.2,8.8c-0.4,0.4-0.9,0.7-1.6,0.7c-0.6,0-1.2-0.2-1.6-0.7c-0.4-0.4-0.6-1-0.6-1.8c0-0.7,0.2-1.3,0.6-1.8
		c0.4-0.4,0.9-0.7,1.6-0.7c0.6,0,1.2,0.2,1.6,0.7c0.4,0.4,0.6,1,0.6,1.8C30.8,7.7,30.6,8.3,30.2,8.8z"/>
	<path class="st0" d="M72.2,9.3c-0.4,0.1-0.8,0.2-1.2,0.2c-0.7,0-1.2-0.2-1.7-0.5c-0.4-0.3-0.7-0.7-0.8-1.3h6.6c0-0.4,0-0.6,0-0.7
		c0-0.9-0.2-1.7-0.6-2.4c-0.4-0.7-0.9-1.2-1.6-1.6c-0.7-0.4-1.5-0.6-2.3-0.6c-0.9,0-1.7,0.2-2.4,0.6C67.5,3.5,67,4,66.6,4.7
		C66.2,5.4,66,6.1,66,7c0,0.9,0.2,1.6,0.6,2.3c0.4,0.7,1,1.2,1.8,1.6c0.8,0.4,1.6,0.6,2.6,0.6c1.6,0,2.8-0.5,3.6-1.4l-1.3-1.5
		C72.9,8.9,72.6,9.1,72.2,9.3z M69.2,4.9c0.4-0.3,0.9-0.5,1.4-0.5c0.6,0,1,0.2,1.4,0.5c0.4,0.3,0.6,0.8,0.7,1.3h-4.3
		C68.6,5.7,68.8,5.2,69.2,4.9z"/>
</g>
</svg>
