<svg enable-background="new 0 0 191.2 138.4" version="1.1" viewBox="0 0 191.2 138.4" xmlns="http://www.w3.org/2000/svg">
  <path fill="#C79499" d="m54.8 20.9c0.5-0.2 1.1-0.4 1.8-0.5 4.2-1 9.8-1.3 13.1 0.3-0.4 0.1-1.1 0.2-2 0.2-2.3-0.1-4.5-0.1-6.5-0.1-2.5 0-4.7 0.1-6.4 0.1m10.4 2.6c0.5-0.1 1 0.3 1.1 0.9 0.1 0.5-0.3 1-0.9 1.1-0.5 0.1-1-0.3-1.1-0.9 0-0.5 0.4-1 0.9-1.1m16.1 31.7c-0.1-0.1-0.3-0.2-0.5-0.3-1.2-0.8-1.7-1.9-1.9-2.4-0.2-0.7-0.2-1.1-0.2-1.4 0.1 0.1 0.3 0.2 0.4 0.3 0.7 0.6 1.5 1.9 2.2 3.8m9.8-25c-0.3-4.3-1.6-11.8-6.1-13.5-6.3-2.4-10 1.9-13.1 5.6-2.4 2.8-4.6 5.5-7.7 5.5-5.1 0-8.8-2.9-10.6-4.8 2-0.1 5.3-0.2 9-0.1-0.4 0.5-0.6 1.2-0.5 1.9 0.1 1.5 1.4 2.5 2.9 2.4 1.5-0.2 2.5-1.4 2.4-2.9 0-0.5-0.2-0.9-0.5-1.2h0.8c1.8-0.1 4.2-0.4 4.7-1.9 0.2-0.7-0.1-1.4-0.7-1.8-4.8-3.3-14.8-1.8-18.8-0.1-1.7 0.7-2.6 1.6-2.7 2.5 0 0.3 0 0.5 0.2 0.7 0 0.1 0.1 0.1 0.1 0.2 0.2 0.3 5 7.3 13.7 7.3h0.1c4.1 0 6.8-3.2 9.4-6.2 3.1-3.7 5.8-6.9 10.7-5 2.4 0.9 4.2 5.3 4.7 11.6 0.9 10.5-1.8 22.5-5.5 24.7-0.8-2.5-1.9-4.4-2.9-5.3-1.2-1.1-2.1-1.1-2.7-0.9-0.7 0.3-1.2 1-1.4 1.9-0.2 1.7 0.7 4.3 3 5.8 0.8 0.6 1.6 0.8 2.3 0.9 0.2 1.4 0.3 3 0.2 4.7-0.5 5.1-3.7 12.6-15.5 19.7-5 3-11 4.9-17.2 5.6-1 0.1-2 0.2-3.1 0.2 0.1 0.7 0.1 1.4 0.2 2.2 1 0 2.1-0.1 3.1-0.2 6.5-0.7 12.7-2.7 18.1-5.9 12.6-7.6 15.9-15.8 16.5-21.3 0.2-1.9 0.1-3.6-0.2-5.2 0.2-0.1 0.4-0.2 0.5-0.3 5-2.8 7.5-16.4 6.6-26.8"/>
  <path fill="#DF2657" d="m46.5 90c-1-10.8 0.1-16.9 0.7-19.9 0.3-1.2 0.5-2.1 0.4-3-0.3-2.7-2.4-6.5-4-7.8-0.2-0.2-0.2-0.5 0.8-2.7 0.4-0.9 1-2.1 1.6-3.6 0.1-0.3 0.3-0.7 0.4-1 1.2-2.9 2.3-5.6 1-7.5-1-1.4-2.9-1.9-6.2-1.8-0.7 0-1.2-0.1-1.4-0.4-1.2-1.8 2.2-8.7 4.4-13.2 1.7-3.5 3.3-6.8 3.8-9 0.9-4.4-0.1-18.7-0.9-19.7-0.1-0.2-0.4-0.4-0.7-0.4-2-0.1-4 0-6 0.2-12 1.2-22.7 7.1-30.3 16.4-7.6 9.4-11.1 21.1-9.9 33 1.2 11.2 6.5 21.5 14.9 29 8.3 7.4 18.9 11.4 29.9 11.4h1.5zm-44.1-40.6c-1.2-11.4 2.1-22.5 9.4-31.4 7.2-8.9 17.4-14.4 28.8-15.6 1.6-0.2 3.3-0.2 4.9-0.2 0.4 2.9 1.4 13.5 0.5 17.6-0.4 1.9-2 5.2-3.6 8.5-3.7 7.6-6 12.8-4.3 15.4 0.4 0.7 1.4 1.5 3.3 1.4 3.1-0.2 4 0.5 4.3 0.8 0.7 0.9-0.3 3.2-1.2 5.4-0.1 0.3-0.3 0.7-0.4 1-0.6 1.4-1.1 2.6-1.5 3.5-1.1 2.5-1.8 4-0.2 5.3 1.1 0.9 3 4.1 3.2 6.3 0.1 0.5-0.1 1.2-0.4 2.3-0.6 2.7-1.8 7.8-0.9 18.2-21.8-0.4-39.7-16.7-41.9-38.5z"/>
  <path fill="#DF2657" d="m35.4 58.9c-0.6 0.1-1 0.6-1 1.2l0.2 2.2c-0.6 0-1.3 0-2.1 0.1l-0.3-2.2c-0.1-0.6-0.6-1-1.2-0.9s-1 0.6-0.9 1.2l0.3 2.2c-0.9 0.2-1.9 0.4-2.9 0.8l-1.1-2c-0.3-0.5-0.9-0.7-1.5-0.5-0.5 0.3-0.7 0.9-0.5 1.5l1 1.8c-0.7 0.3-1.4 0.7-2 1.1l-1.5-1.4c-0.4-0.4-1.1-0.4-1.5 0s-0.4 1.1 0 1.5l2.3 2.2c0.2 0.2 0.5 0.3 0.7 0.3s0.4-0.1 0.6-0.2c1-0.7 2.1-1.3 3.2-1.8 0.1 0 0.3 0 0.4-0.1 0.1 0 0.1-0.1 0.2-0.1 1.4-0.5 2.8-0.9 4-1.1h0.2c2.2-0.4 3.8-0.2 3.9-0.2 0.3 0 0.6-0.1 0.9-0.3 0.2-0.2 0.3-0.5 0.3-0.9l-0.3-3.4c-0.3-0.6-0.8-1.1-1.4-1z"/>
  <path fill="#DF2657" d="m91.7 129.3c-0.7 0-1.4 0.1-2.1 0.3s-1.2 0.4-1.7 0.8l0.9 1.8c0.3-0.2 0.7-0.4 1.1-0.6 0.4-0.1 0.9-0.2 1.4-0.2 0.7 0 1.2 0.1 1.5 0.4s0.5 0.7 0.5 1.3h-2c-1.3 0-2.2 0.2-2.8 0.7s-0.9 1.1-0.9 1.9c0 0.5 0.1 1 0.4 1.4s0.6 0.7 1.1 0.9 1.1 0.3 1.7 0.3c1.3 0 2.2-0.4 2.7-1.2v1.1h2.4v-5c0-1.3-0.4-2.3-1.1-2.9s-1.8-1-3.1-1zm1.6 6.1c-0.1 0.4-0.4 0.7-0.7 0.9s-0.7 0.3-1.2 0.3c-0.4 0-0.8-0.1-1-0.3-0.3-0.2-0.4-0.4-0.4-0.8 0-0.7 0.5-1 1.6-1h1.7v0.9z"/>
  <polygon fill="#DF2657" points="101.8 135.4 99.4 129.5 96.8 129.5 100.4 138.2 103 138.2 106.7 129.5 104.3 129.5"/>
  <path fill="#DF2657" d="m82.1 129.3c-0.6 0-1.1 0.1-1.6 0.3s-0.9 0.4-1.2 0.8v-4.2h-2.5v12h2.5v-4.3c0-0.8 0.2-1.4 0.6-1.8s0.9-0.6 1.5-0.6 1 0.2 1.3 0.5 0.5 0.9 0.5 1.5v4.6h2.5v-5c0-1.3-0.3-2.2-1-2.9-0.6-0.5-1.5-0.9-2.6-0.9z"/>
  <polygon fill="#DF2657" points="75.2 129.5 72.5 129.5 70.6 132 68.8 129.5 66 129.5 69.2 133.8 65.8 138.2 68.6 138.2 70.6 135.5 72.5 138.2 75.4 138.2 72 133.7"/>
  <path fill="#DF2657" d="m47.6 129.3c0.6-0.3 1.2-0.5 1.9-0.5 1.1 0 2.1 0.4 2.9 1.3l1.7-1.6c-0.5-0.6-1.2-1.1-2-1.5-0.8-0.3-1.7-0.5-2.7-0.5-1.2 0-2.2 0.3-3.2 0.8-0.9 0.5-1.7 1.2-2.2 2.1s-0.8 1.9-0.8 3 0.3 2.1 0.8 3 1.3 1.6 2.2 2.1 2 0.8 3.1 0.8c1 0 1.9-0.2 2.7-0.5s1.5-0.8 2-1.5l-1.7-1.6c-0.8 0.9-1.7 1.3-2.9 1.3-0.7 0-1.3-0.2-1.9-0.5s-1-0.7-1.3-1.3-0.5-1.2-0.5-1.9 0.2-1.3 0.5-1.9c0.4-0.3 0.9-0.7 1.4-1.1z"/>
  <path fill="#DF2657" d="m61.9 133.8c0 0.8-0.2 1.4-0.6 1.8s-0.9 0.6-1.5 0.6c-1.2 0-1.8-0.7-1.8-2.1v-4.6h-2.5v4.9c0 1.3 0.3 2.3 1 2.9 0.7 0.7 1.6 1 2.7 1 0.5 0 1-0.1 1.5-0.3s0.9-0.5 1.2-0.9v1h2.4v-8.7h-2.5v4.4z"/>
  <path fill="#DF2657" d="m123.5 129.3c-0.6 0-1.1 0.1-1.6 0.3s-0.9 0.5-1.2 0.9v-1h-2.4v8.7h2.5v-4.3c0-0.8 0.2-1.4 0.6-1.8s0.9-0.6 1.5-0.6 1 0.2 1.3 0.5 0.5 0.9 0.5 1.5v4.6h2.5v-5c0-1.3-0.3-2.2-1-2.9-0.8-0.5-1.6-0.9-2.7-0.9z"/>
  <path fill="#DF2657" d="m114.1 129.9c-0.7-0.4-1.5-0.6-2.3-0.6-0.9 0-1.7 0.2-2.4 0.6s-1.3 0.9-1.7 1.6-0.6 1.5-0.6 2.3c0 0.9 0.2 1.6 0.6 2.3s1 1.2 1.8 1.6 1.6 0.6 2.6 0.6c1.6 0 2.8-0.5 3.6-1.4l-1.3-1.5c-0.3 0.3-0.6 0.5-1 0.6s-0.8 0.2-1.2 0.2c-0.7 0-1.2-0.2-1.7-0.5-0.4-0.3-0.7-0.7-0.8-1.3h6.6v-0.7c0-0.9-0.2-1.7-0.6-2.4-0.4-0.5-0.9-1-1.6-1.4zm-4.5 3.2c0.1-0.6 0.3-1 0.7-1.3s0.9-0.5 1.4-0.5c0.6 0 1 0.2 1.4 0.5s0.6 0.8 0.7 1.3h-4.2z"/>
  <path fill="#DF2657" d="m60.9 117.4-2.4-5.9h-2.6l3.8 8.8v0.1c-0.2 0.4-0.4 0.7-0.6 0.8-0.2 0.2-0.5 0.3-0.8 0.3-0.2 0-0.5 0-0.8-0.1s-0.5-0.2-0.7-0.4l-0.9 1.8c0.3 0.2 0.6 0.4 1.1 0.6 0.4 0.1 0.9 0.2 1.3 0.2 0.8 0 1.5-0.2 2.1-0.6s1.1-1.1 1.5-2.1l3.9-9.3h-2.4l-2.5 5.8z"/>
  <polygon fill="#DF2657" points="51.7 113.3 46.5 113.3 46.5 108.8 43.9 108.8 43.9 120.2 46.5 120.2 46.5 115.5 51.7 115.5 51.7 120.2 54.3 120.2 54.3 108.8 51.7 108.8"/>
  <path fill="#DF2657" d="m103.9 118.4c-0.5 0-1.1-0.1-1.6-0.2-0.6-0.2-1-0.4-1.4-0.6l-0.8 1.8c0.4 0.3 1 0.5 1.7 0.7s1.4 0.3 2.1 0.3c0.9 0 1.6-0.1 2.2-0.3s1.1-0.6 1.4-1 0.5-0.9 0.5-1.4c0-0.6-0.2-1.1-0.5-1.5s-0.7-0.6-1.2-0.7-1-0.3-1.8-0.4c-0.6-0.1-1.1-0.2-1.4-0.3s-0.4-0.3-0.4-0.6c0-0.2 0.1-0.4 0.4-0.6s0.7-0.2 1.2-0.2c0.9 0 1.7 0.2 2.5 0.6l0.8-1.8c-0.4-0.2-0.9-0.4-1.5-0.6-0.6-0.1-1.2-0.2-1.8-0.2-0.8 0-1.6 0.1-2.2 0.4-0.6 0.2-1.1 0.6-1.4 1s-0.5 0.9-0.5 1.5c0 0.7 0.2 1.2 0.5 1.5 0.3 0.4 0.7 0.6 1.2 0.7s1.1 0.3 1.8 0.4c0.6 0.1 1.1 0.2 1.3 0.3 0.3 0.1 0.4 0.3 0.4 0.5 0.1 0.4-0.4 0.7-1.5 0.7z"/>
  <path fill="#DF2657" d="m135.5 111.9c-0.7-0.4-1.5-0.6-2.3-0.6-0.9 0-1.7 0.2-2.4 0.6s-1.3 0.9-1.7 1.6-0.6 1.5-0.6 2.3c0 0.9 0.2 1.6 0.6 2.3s1 1.2 1.8 1.6 1.6 0.6 2.6 0.6c1.6 0 2.8-0.5 3.6-1.4l-1.3-1.5c-0.3 0.3-0.6 0.5-1 0.6s-0.8 0.2-1.2 0.2c-0.7 0-1.2-0.2-1.7-0.5-0.4-0.3-0.7-0.7-0.8-1.3h6.6v-0.7c0-0.9-0.2-1.7-0.6-2.4-0.4-0.5-0.9-1.1-1.6-1.4zm-4.5 3.1c0.1-0.6 0.3-1 0.7-1.3s0.9-0.5 1.4-0.5c0.6 0 1 0.2 1.4 0.5s0.6 0.8 0.7 1.3h-4.2z"/>
  <path fill="#DF2657" d="m160.6 112.6v-1.2h-2.4v8.7h2.5v-4.1c0-0.8 0.2-1.4 0.6-1.8s1-0.6 1.7-0.6h0.6v-2.3c-0.7 0-1.3 0.1-1.8 0.3-0.5 0.3-0.9 0.6-1.2 1z"/>
  <path fill="#DF2657" d="m154.8 118.3c-0.3 0-0.6-0.1-0.8-0.3s-0.3-0.5-0.3-0.9v-3.6h2.2v-1.9h-2.2v-2.1h-2.5v2.1h-1.3v1.9h1.3v3.6c0 1 0.3 1.8 0.9 2.3s1.4 0.8 2.4 0.8c0.4 0 0.8 0 1.1-0.1 0.4-0.1 0.7-0.2 0.9-0.4l-0.7-1.8c-0.2 0.3-0.6 0.4-1 0.4z"/>
  <path fill="#DF2657" d="m144.9 111.3c-0.6 0-1.1 0.1-1.6 0.3s-0.9 0.5-1.2 0.9v-1h-2.4v8.7h2.5v-4.3c0-0.8 0.2-1.4 0.6-1.8s0.9-0.6 1.5-0.6 1 0.2 1.3 0.5 0.5 0.9 0.5 1.5v4.6h2.5v-5c0-1.3-0.3-2.2-1-2.9-0.8-0.6-1.6-0.9-2.7-0.9z"/>
  <path fill="#DF2657" d="m190.3 112.3c-0.6-0.6-1.5-1-2.6-1-0.6 0-1.2 0.1-1.8 0.4-0.5 0.2-1 0.6-1.4 1.1-0.3-0.5-0.7-0.8-1.2-1.1s-1.1-0.4-1.7-0.4-1.1 0.1-1.5 0.3c-0.5 0.2-0.9 0.5-1.2 0.8v-1h-2.4v8.7h2.5v-4.4c0-0.8 0.2-1.3 0.5-1.7s0.8-0.6 1.4-0.6c1.1 0 1.7 0.7 1.7 2.1v4.6h2.5v-4.4c0-0.8 0.2-1.3 0.5-1.7s0.8-0.6 1.4-0.6c0.5 0 0.9 0.2 1.2 0.5s0.4 0.9 0.4 1.5v4.6h2.5v-5c0.1-1.1-0.2-2.1-0.8-2.7z"/>
  <path fill="#DF2657" d="m171.5 115.8c0 0.8-0.2 1.4-0.6 1.8s-0.9 0.6-1.5 0.6c-1.2 0-1.8-0.7-1.8-2.1v-4.6h-2.5v4.9c0 1.3 0.3 2.3 1 2.9 0.7 0.7 1.6 1 2.7 1 0.5 0 1-0.1 1.5-0.3s0.9-0.5 1.2-0.9v1h2.4v-8.7h-2.5v4.4z"/>
  <path fill="#DF2657" d="m83.9 111.3c-0.6 0-1.1 0.1-1.6 0.3s-0.9 0.5-1.2 0.9v-1h-2.4v8.7h2.5v-4.3c0-0.8 0.2-1.4 0.6-1.8s0.9-0.6 1.5-0.6 1 0.2 1.3 0.5 0.5 0.9 0.5 1.5v4.6h2.5v-5c0-1.3-0.3-2.2-1-2.9-0.8-0.6-1.7-0.9-2.7-0.9z"/>
  <polygon fill="#DF2657" points="127.2 113 127.2 111.4 119.7 111.4 119.7 113.4 124 113.4 119.6 118.6 119.6 120.2 127.4 120.2 127.4 118.2 122.8 118.2"/>
  <path fill="#DF2657" d="m98.3 118.1c0.4-0.7 0.6-1.5 0.6-2.3 0-0.9-0.2-1.6-0.6-2.3s-1-1.2-1.7-1.6-1.5-0.6-2.5-0.6c-0.9 0-1.7 0.2-2.5 0.6-0.7 0.4-1.3 0.9-1.7 1.6s-0.6 1.5-0.6 2.3c0 0.9 0.2 1.6 0.6 2.3s1 1.2 1.7 1.6 1.6 0.6 2.5 0.6 1.7-0.2 2.5-0.6c0.7-0.4 1.3-0.9 1.7-1.6zm-2.6-0.5c-0.4 0.4-0.9 0.7-1.6 0.7-0.6 0-1.2-0.2-1.6-0.7-0.4-0.4-0.6-1-0.6-1.8 0-0.7 0.2-1.3 0.6-1.8 0.4-0.4 1-0.7 1.6-0.7s1.2 0.2 1.6 0.7c0.4 0.4 0.6 1 0.6 1.8 0 0.7-0.2 1.3-0.6 1.8z"/>
  <path fill="#DF2657" d="m74.5 111.9c-0.7-0.4-1.4-0.6-2.2-0.6-1.2 0-2.1 0.4-2.7 1.1v-1h-2.4v11.9h2.5v-4.1c0.6 0.7 1.5 1.1 2.6 1.1 0.8 0 1.5-0.2 2.2-0.6s1.2-0.9 1.6-1.6 0.6-1.5 0.6-2.4-0.2-1.7-0.6-2.4c-0.4-0.5-1-1.1-1.6-1.4zm-1.1 5.7c-0.4 0.4-0.9 0.7-1.6 0.7-0.6 0-1.2-0.2-1.6-0.7-0.4-0.4-0.6-1-0.6-1.8 0-0.7 0.2-1.3 0.6-1.8 0.4-0.4 0.9-0.7 1.6-0.7 0.6 0 1.2 0.2 1.6 0.7 0.4 0.4 0.6 1 0.6 1.8 0.1 0.7-0.2 1.3-0.6 1.8z"/>
  <path fill="#DF2657" d="m115.4 118.1c-0.4 0.1-0.8 0.2-1.2 0.2-0.7 0-1.2-0.2-1.7-0.5-0.4-0.3-0.7-0.7-0.8-1.3h6.6v-0.7c0-0.9-0.2-1.7-0.6-2.4s-0.9-1.2-1.6-1.6-1.5-0.6-2.3-0.6c-0.9 0-1.7 0.2-2.4 0.6s-1.3 0.9-1.7 1.6-0.6 1.5-0.6 2.3c0 0.9 0.2 1.6 0.6 2.3s1 1.2 1.8 1.6 1.6 0.6 2.6 0.6c1.6 0 2.8-0.5 3.6-1.4l-1.3-1.5c-0.3 0.4-0.6 0.6-1 0.8zm-3-4.4c0.4-0.3 0.9-0.5 1.4-0.5 0.6 0 1 0.2 1.4 0.5s0.6 0.8 0.7 1.3h-4.3c0.2-0.5 0.4-1 0.8-1.3z"/>
</svg>
