<?xml version="1.0" encoding="utf-8"?>
<!-- Generator: Adobe Illustrator 24.0.0, SVG Export Plug-In . SVG Version: 6.00 Build 0)  -->
<svg version="1.1" id="Ebene_1" xmlns="http://www.w3.org/2000/svg" xmlns:xlink="http://www.w3.org/1999/xlink" x="0px" y="0px"
	 viewBox="0 0 81 58.7" style="enable-background:new 0 0 81 58.7;" xml:space="preserve">
<style type="text/css">
	.st0{fill:#DF2657;}
</style>
<path class="st0" d="M80.9,28c-0.3-1.5-1.2-2.8-2.1-4c-1-1.4-2.1-2.7-3.1-4.1c-2.1-2.8-4.2-5.6-6.3-8.4c-2.1-2.7-4.1-5.5-6.2-8.2
	c-0.9-1.2-1.8-2.5-3.3-3c-1.5-0.5-3.1-0.1-4.6,0.1c-6,0.7-12.1,1.4-18,2.5c-5.9,1-11.8,2.4-17.4,4.4c-2.9,1-5.7,2.1-8.5,3.5
	c-1.3,0.6-2.6,1.3-3.9,2.1c-1.2,0.7-2.5,1.4-3.5,2.4c-1,1.1-1.4,2.5-0.7,3.8c0.1,0.2,0.3,0.4,0.5,0.5c1.5,2.2,3.2,4.3,4.9,6.3
	c-1,0.3-1.5,1.3-1.9,2.2c-0.5,1.3-0.8,2.7-1,4c-0.6,3.4-0.8,6.8-1.1,10.2c-0.1,0.7-0.1,1.4-0.2,2c0,0.2,0,0.5-0.1,0.7c0,0,0,0,0,0
	c0,0,0,0,0,0c0,0.1,0,0.1,0,0.2c0,0.1,0,0.2,0,0.3c-1.2,0.6-2.2,1.6-2.8,2.7c-1,1.7-1.2,3.7-1.5,5.6c-0.1,0.4,0.4,1,0.8,1
	c3.6,0.5,7.3,0.7,11,0.6c0.4,0,1-0.3,1-0.8c0.3-2.3-0.1-4.8-1.6-6.7c-1.2-1.6-2.8-2.7-4.7-3.3c0.1-0.5,0.1-1.1,0.1-1.6
	C6.8,41.4,7,40,7.1,38.5c0.3-3.2,0.5-6.1,1.4-9.2c0.1-0.3,0.2-0.6,0.3-0.9c0-0.1,0.1-0.2,0.1-0.2C8.9,28.2,9,28.1,9.1,28
	c0,0,0-0.1,0.1-0.1c0,0,0.1-0.1,0.1-0.1c0.4,0,0.6-0.2,0.8-0.5c1.6,1.8,3.3,3.6,5,5.4c1,1,1.9,1.9,2.9,2.9c0,0,0,0.1,0,0.1
	c-0.3,3.3-0.6,6.5-1,9.8c-0.2,1.6-0.3,3.3-0.5,4.9c-0.1,0.7-0.2,1.3,0.1,2c-0.1,0.4,0.1,1,0.5,1.1c6.6,2.8,13.7,4.2,20.9,4.8
	c7.2,0.6,14.5,0.4,21.7,0.1c3.8-0.1,7.8-0.3,11.2-2.4c0.5-0.3,0.6-0.9,0.4-1.3c1-6.4,1.6-12.9,1.7-19.3c0-0.5-0.2-0.8-0.6-0.9
	c0.5-0.2,0.9-0.4,1.4-0.6c1.6-0.7,3.1-1.4,4.6-2.2c0.7-0.3,1.4-0.6,2-1C81.2,30.2,81.1,28.8,80.9,28z M10.8,53.1
	C8,53.2,5.1,53,2.3,52.7c0.4-2.3,1.1-5.1,3.7-5.7c0.2-0.1,0.4-0.2,0.5-0.3C9.1,47.8,10.9,50.3,10.8,53.1z M9.1,27.8
	C9.1,27.8,9.1,27.8,9.1,27.8C9.2,27.8,9.2,27.8,9.1,27.8C9.1,27.8,9.1,27.8,9.1,27.8z M9.2,27.8C9.2,27.8,9.2,27.8,9.2,27.8
	C9.2,27.8,9.2,27.8,9.2,27.8z M9.2,27.8C9.2,27.7,9.2,27.7,9.2,27.8C9.3,27.7,9.3,27.7,9.2,27.8C9.2,27.7,9.2,27.7,9.2,27.8z
	 M9.3,27.7C9.3,27.7,9.3,27.7,9.3,27.7C9.3,27.7,9.4,27.7,9.3,27.7z M70.8,35.4c-0.1,6.3-0.6,12.6-1.6,18.9c0,0.1,0,0.2,0,0.3
	c-2.6,1.4-5.7,1.6-8.7,1.7c-3.5,0.1-7,0.2-10.5,0.3c-6.9,0.1-13.9-0.2-20.7-1.5c-3.5-0.7-6.9-1.6-10.2-3c-0.1-0.3-0.3-0.6-0.6-0.8
	c0,0,0,0,0,0c0-0.4,0.1-0.7,0.1-1.1c0.1-0.7,0.1-1.3,0.2-2c0.1-1.4,0.3-2.8,0.4-4.2c0.2-2.2,0.4-4.4,0.6-6.5
	c2.7,2.6,5.5,5.1,8.4,7.6c1.1,0.9,2.2,2,3.6,2.6c1.6,0.8,3.3,0.8,5,0.4c1.6-0.4,3.1-1,4.7-1.5c1.6-0.5,3.1-1,4.6-1.6
	c6.3-2.2,12.5-4.6,18.6-7.2c2-0.9,4-1.7,6.1-2.6C70.8,35.2,70.8,35.3,70.8,35.4z M78.8,29C68,34.3,56.8,39,45.4,43
	c-2.9,1-5.8,2.1-8.8,2.9c-1.3,0.3-2.6,0.4-3.9-0.2c-1.2-0.6-2.1-1.5-3.1-2.3c-4.3-3.6-8.4-7.4-12.3-11.4C13,27.5,8.8,22.9,5.2,17.8
	c0-0.1-0.1-0.1-0.2-0.2c0-0.3,0.1-0.5,0.3-0.8c0.3-0.5,0.8-0.8,1.3-1.1c1.2-0.8,2.5-1.5,3.8-2.2c2.6-1.4,5.3-2.5,8-3.6
	c5.5-2.1,11.3-3.5,17-4.6c5.8-1.1,11.7-1.9,17.5-2.6c1.5-0.2,3-0.4,4.4-0.5c0.6-0.1,1.3-0.1,1.9,0.1c0.6,0.2,1,0.7,1.3,1.2
	c2.1,2.6,4,5.4,6.1,8.1c2.3,3,4.6,6.1,6.8,9.1c1.2,1.5,2.3,3.1,3.5,4.6C77.9,26.3,78.9,27.6,78.8,29z"/>
</svg>
