<?xml version="1.0" encoding="utf-8"?>
<!-- Generator: Adobe Illustrator 24.0.0, SVG Export Plug-In . SVG Version: 6.00 Build 0)  -->
<svg version="1.1" id="Ebene_1" xmlns="http://www.w3.org/2000/svg" xmlns:xlink="http://www.w3.org/1999/xlink" x="0px" y="0px"
	 viewBox="0 0 60.7 28.2" style="enable-background:new 0 0 60.7 28.2;" xml:space="preserve">
<style type="text/css">
	.st0{fill:#DF2657;}
</style>
<g>
	<path class="st0" d="M60.4,9.5c0.2-0.1,0.3-0.3,0.3-0.6c0-0.3-0.3-0.8-0.7-0.7c-3.4,0.4-6.7-0.9-9.8-2.3c-3.2-1.5-6.4-3.3-9.9-4.2
		c-1.7-0.4-3.5-0.5-5.2-0.2c-2.2,0.4-4.2,1.4-6.3,1.6c-1,0.1-2-0.1-3-0.4c-0.9-0.4-1.8-0.9-2.7-1.3c-0.9-0.5-1.9-0.9-2.9-1.2
		C19-0.1,17.8,0,16.6,0.1c-1.2,0.2-2.4,0.5-3.5,0.8c-1.2,0.3-2.4,0.6-3.6,1c-2.4,0.7-4.8,1.3-7.1,2C1.8,4.1,1.2,4.2,0.6,4.4
		C0.4,4.5,0.2,4.6,0.2,4.8C0,5.1-0.1,5.5,0.2,5.8c3.4,3.8,6.8,7.5,10.5,11C14.2,20,18,23,22.3,25.2c4,2,8.3,3.4,12.8,2.8
		c4.7-0.6,8.9-2.9,12.7-5.6c4.2-3,7.9-6.7,11.4-10.5c0.4-0.5,0.9-0.9,1.3-1.4C60.8,10.1,60.7,9.7,60.4,9.5z M48.5,20.1
		c-3.6,2.8-7.6,5.3-12.1,6.3c-2,0.4-4.1,0.6-6.1,0.2c-2.1-0.4-4.2-1.1-6.1-2c-4.2-1.9-7.9-4.8-11.3-7.8C9.2,13.5,5.8,9.8,2.5,6.2
		C2.3,5.9,2.1,5.7,1.9,5.5C4,4.9,6.1,4.3,8.2,3.7c2.3-0.6,4.7-1.3,7.1-1.9c1.1-0.3,2.3-0.5,3.5-0.4c1,0,2,0.4,2.9,0.8
		c1.9,0.9,3.6,2,5.7,2.3c2.2,0.3,4.4-0.6,6.5-1.2c1.7-0.5,3.4-0.7,5.2-0.4c3.5,0.6,6.6,2.3,9.8,3.8c3.1,1.5,6.5,3,10.1,3
		c0.2,0,0.4,0,0.6,0C56,13.4,52.4,17,48.5,20.1z"/>
	<path class="st0" d="M52.3,10.7c-2.1,0.9-4.1,2.1-6.1,3.2c-2.5,1.3-5,2.4-7.8,3c-3.2,0.7-6.5,0.8-9.7,0.1c-3.3-0.6-6.5-1.9-9.5-3.4
		c-2.1-1.1-4.1-2.3-6-3.7c2.6-0.8,5.2-1.5,7.9-2.2c0.6-0.2,1.3-0.3,2-0.2c0.6,0,1.1,0.2,1.6,0.5c1.1,0.5,2.2,1.2,3.4,1.3
		C29.5,9.5,30.8,9,32,8.6c1-0.3,2-0.4,3-0.2c2,0.4,3.8,1.4,5.6,2.2c2.1,1,4.3,2,6.7,1.7c0.4,0,0.7-0.3,0.7-0.7
		c0-0.3-0.3-0.8-0.7-0.7c-2,0.2-3.9-0.5-5.6-1.3c-1.9-0.9-3.8-2-5.8-2.4c-1-0.2-2.1-0.3-3.1-0.1c-1.2,0.2-2.4,0.8-3.7,0.9
		c-1.2,0.1-2.2-0.5-3.2-1c-0.5-0.3-1.1-0.5-1.7-0.7c-0.7-0.2-1.4-0.2-2.1-0.1c-1.6,0.2-3.2,0.7-4.8,1.2c-1.6,0.4-3.2,0.9-4.7,1.3
		C12.3,8.8,12.1,8.9,12,9c-0.7-0.5-1.5-1.1-2.2-1.7c-0.3-0.2-0.7-0.3-1,0c-0.2,0.2-0.3,0.8,0,1c5.5,4.3,11.6,8.2,18.4,9.8
		c3.4,0.8,6.8,1,10.2,0.4c3-0.5,5.8-1.6,8.5-2.9c2.4-1.2,4.7-2.6,7.1-3.7c0.4-0.2,0.4-0.7,0.3-1C53.1,10.6,52.7,10.6,52.3,10.7z"/>
</g>
</svg>
