<?xml version="1.0" encoding="utf-8"?>
<!-- Generator: Adobe Illustrator 24.0.0, SVG Export Plug-In . SVG Version: 6.00 Build 0)  -->
<svg version="1.1" id="Ebene_1" xmlns="http://www.w3.org/2000/svg" xmlns:xlink="http://www.w3.org/1999/xlink" x="0px" y="0px"
	 viewBox="0 0 115.4 272.9" style="enable-background:new 0 0 115.4 272.9;" xml:space="preserve">
<style type="text/css">
	.st0{fill:#DF2657;}
</style>
<g>
	<path class="st0" d="M29.2,0c-0.8,0-1.5,0.6-1.6,1.4c0,0.3,0.1,0.6,0.2,0.8c0.7,3.2,3.8,42.5,0.2,57c-1.5,6.2-6.7,16-12.1,26.4
		c-9.6,18.3-19.6,37.3-14.7,45.1c1.5,2.5,4.3,3.7,8.3,3.6c7.9-0.2,12.9,1.1,14.7,3.8c2.5,3.8-0.7,10.8-4,18.3c-0.4,1-0.9,2-1.3,3
		c-2,4.4-3.7,7.9-5.1,10.7c-3.7,7.4-5.4,10.8-1.6,14c3.9,3.3,9.3,14.1,9.8,21c0.1,1.8-0.5,4.2-1.3,7.5c-2.2,8.6-6.4,24.6-4.2,58.8
		c0.1,0.8,0.7,1.4,1.5,1.4c0,0,0.1,0,0.1,0c0.8-0.1,1.5-0.8,1.4-1.6c-2.2-33.7,1.9-49.4,4.1-57.8c0.9-3.6,1.6-6.1,1.4-8.5
		c-0.6-7.7-6.5-19.3-10.9-23.1c-1.8-1.6-1.3-3,2.3-10.4c1.4-2.8,3.1-6.3,5.1-10.8c0.4-1,0.9-2,1.3-3c3.7-8.2,7.2-16,3.8-21.2
		c-2.5-3.7-7.9-5.4-17.2-5.1c-2.9,0.1-4.8-0.7-5.7-2.2c-4-6.4,6.4-26.2,14.8-42.1C24.2,76.4,29.4,66.5,31,60
		c3.6-14.7,0.9-57.3-0.6-59.3C30.1,0.3,29.7,0,29.2,0z"/>
	<path class="st0" d="M115,45.1c-0.3-0.3-0.7-0.5-1.2-0.4c-0.1,0-6.4,0.4-15.2-1c-0.1,0-0.2-0.1-0.3-0.1c-0.1,0-0.1,0-0.2,0
		c-8.8-1.4-20.1-4.7-30.3-12c-0.6-0.4-1.4-0.4-1.9,0.1L57.4,40c-0.6,0.6-0.6,1.5,0,2.1c0.6,0.6,1.5,0.6,2.1,0l7.6-7.3
		c3.8,2.6,7.8,4.7,11.7,6.4l-5,9.5c-0.4,0.7-0.1,1.6,0.6,2c0.2,0.1,0.5,0.2,0.7,0.2c0.5,0,1.1-0.3,1.3-0.8l5.2-9.8
		c5.3,2,10.3,3.3,14.9,4.1L95,57.2c-0.1,0.8,0.5,1.6,1.3,1.7c0.1,0,0.1,0,0.2,0c0.7,0,1.4-0.5,1.5-1.3L99.4,47
		c5.8,0.8,10.5,0.9,12.9,0.8L111.2,59c-0.1,0.8,0.5,1.6,1.3,1.6c0.1,0,0.1,0,0.2,0c0.8,0,1.4-0.6,1.5-1.4l1.3-12.9
		C115.5,45.9,115.3,45.5,115,45.1z"/>
</g>
</svg>
