<svg enable-background="new 0 0 91.3 90" version="1.1" viewBox="0 0 91.3 90" xmlns="http://www.w3.org/2000/svg">
  <path fill="#C79499" d="m54.8 20.9c0.5-0.2 1.1-0.4 1.8-0.5 4.2-1 9.8-1.3 13.1 0.3-0.4 0.1-1.1 0.2-2 0.2-2.3-0.1-4.5-0.1-6.5-0.1-2.5 0-4.7 0.1-6.4 0.1m10.4 2.6c0.5-0.1 1 0.3 1.1 0.9 0.1 0.5-0.3 1-0.9 1.1-0.5 0.1-1-0.3-1.1-0.9 0-0.5 0.4-1 0.9-1.1m16.1 31.7c-0.1-0.1-0.3-0.2-0.5-0.3-1.2-0.8-1.7-1.9-1.9-2.4-0.2-0.7-0.2-1.1-0.2-1.4 0.1 0.1 0.3 0.2 0.4 0.3 0.7 0.6 1.5 1.9 2.2 3.8m9.8-25c-0.3-4.3-1.6-11.8-6.1-13.5-6.3-2.4-10 1.9-13.1 5.6-2.4 2.8-4.6 5.5-7.7 5.5-5.1 0-8.8-2.9-10.6-4.8 2-0.1 5.3-0.2 9-0.1-0.4 0.5-0.6 1.2-0.5 1.9 0.1 1.5 1.4 2.5 2.9 2.4 1.5-0.2 2.5-1.4 2.4-2.9 0-0.5-0.2-0.9-0.5-1.2h0.7 0.1c1.8-0.1 4.2-0.4 4.7-1.9 0.2-0.7-0.1-1.4-0.7-1.8-4.8-3.3-14.8-1.8-18.8-0.1-1.7 0.7-2.6 1.6-2.7 2.5 0 0.3 0 0.5 0.2 0.7 0 0.1 0.1 0.1 0.1 0.2 0.2 0.3 5 7.3 13.7 7.3h0.1c4.1 0 6.8-3.2 9.4-6.2 3.1-3.7 5.8-6.9 10.7-5 2.4 0.9 4.2 5.3 4.7 11.6 0.9 10.5-1.8 22.5-5.5 24.7-0.8-2.5-1.9-4.4-2.9-5.3-1.2-1.1-2.1-1.1-2.7-0.9-0.7 0.3-1.2 1-1.4 1.9-0.2 1.7 0.7 4.3 3 5.8 0.8 0.6 1.6 0.8 2.3 0.9 0.2 1.4 0.3 3 0.2 4.7-0.5 5.1-3.7 12.6-15.5 19.7-5 3-11 4.9-17.2 5.6-1 0.1-2 0.2-3.1 0.2 0.1 0.7 0.1 1.4 0.2 2.2 1 0 2.1-0.1 3.1-0.2 6.5-0.7 12.7-2.7 18.1-5.9 12.6-7.6 15.9-15.8 16.5-21.3 0.2-1.9 0.1-3.6-0.2-5.2 0.2-0.1 0.4-0.2 0.5-0.3 5-2.8 7.5-16.4 6.6-26.8"/>
  <path fill="#DF2657" d="m46.5 90c-1-10.8 0.1-16.9 0.7-19.9 0.3-1.2 0.5-2.1 0.4-3-0.3-2.7-2.4-6.5-4-7.8-0.2-0.2-0.2-0.5 0.8-2.7 0.4-0.9 1-2.1 1.6-3.6 0.1-0.3 0.3-0.7 0.4-1 1.2-2.9 2.3-5.6 1-7.5-1-1.4-2.9-1.9-6.2-1.8-0.7 0-1.2-0.1-1.4-0.4-1.2-1.8 2.2-8.7 4.4-13.2 1.7-3.5 3.3-6.8 3.8-9 0.9-4.4-0.1-18.7-0.9-19.7-0.1-0.2-0.4-0.4-0.7-0.4-2-0.1-4 0-6 0.2-12 1.2-22.7 7.1-30.3 16.4-7.6 9.4-11.1 21.1-9.9 33 1.2 11.2 6.5 21.5 14.9 29 8.3 7.4 18.9 11.4 29.9 11.4h1.5zm-44.1-40.6c-1.2-11.4 2.1-22.5 9.4-31.4 7.2-8.9 17.4-14.4 28.8-15.6 1.6-0.2 3.3-0.2 4.9-0.2 0.4 2.9 1.4 13.5 0.5 17.6-0.4 1.9-2 5.2-3.6 8.5-3.7 7.6-6 12.8-4.3 15.4 0.4 0.7 1.4 1.5 3.3 1.4 3.1-0.2 4 0.5 4.3 0.8 0.7 0.9-0.3 3.2-1.2 5.4-0.1 0.3-0.3 0.7-0.4 1-0.6 1.4-1.1 2.6-1.5 3.5-1.1 2.5-1.8 4-0.2 5.3 1.1 0.9 3 4.1 3.2 6.3 0.1 0.5-0.1 1.2-0.4 2.3-0.6 2.7-1.8 7.8-0.9 18.2-21.8-0.4-39.7-16.7-41.9-38.5z"/>
  <path fill="#DF2657" d="m35.4 58.9c-0.6 0.1-1 0.6-1 1.2l0.2 2.2c-0.6 0-1.3 0-2.1 0.1l-0.3-2.2c-0.1-0.6-0.6-1-1.2-0.9s-1 0.6-0.9 1.2l0.3 2.2c-0.9 0.2-1.9 0.4-2.9 0.8l-1.1-2c-0.3-0.5-0.9-0.7-1.5-0.5-0.5 0.3-0.7 0.9-0.5 1.5l1 1.8c-0.7 0.3-1.4 0.7-2 1.1l-1.5-1.4c-0.4-0.4-1.1-0.4-1.5 0s-0.4 1.1 0 1.5l2.3 2.2c0.2 0.2 0.5 0.3 0.7 0.3s0.4-0.1 0.6-0.2c1-0.7 2.1-1.3 3.2-1.8 0.1 0 0.3 0 0.4-0.1 0.1 0 0.1-0.1 0.2-0.1 1.4-0.5 2.8-0.9 4-1.1h0.1 0.1c2.2-0.4 3.8-0.2 3.9-0.2 0.3 0 0.6-0.1 0.9-0.3 0.2-0.2 0.3-0.5 0.3-0.9l-0.3-3.4c-0.3-0.6-0.8-1.1-1.4-1z"/>
</svg>
