<?xml version="1.0" encoding="utf-8"?>
<!-- Generator: Adobe Illustrator 24.0.2, SVG Export Plug-In . SVG Version: 6.00 Build 0)  -->
<svg version="1.1" id="Ebene_1" xmlns="http://www.w3.org/2000/svg" xmlns:xlink="http://www.w3.org/1999/xlink" x="0px" y="0px"
	 viewBox="0 0 32 32" style="enable-background:new 0 0 32 32;" xml:space="preserve">
<style type="text/css">
	.st0{fill:#1D1D1B;}
</style>
<g>
	<polygon class="st0" points="12,5.3 12,2.7 6.7,2.7 6.7,5.3 9.3,5.3 	"/>
	<rect x="4" y="5.3" class="st0" width="2.7" height="2.7"/>
	<polygon class="st0" points="4,10.7 4,8 1.4,8 1.4,10.7 1.4,13.3 1.4,16 4,16 4,13.3 	"/>
	<rect x="4" y="16" class="st0" width="2.7" height="2.7"/>
	<rect x="25.3" y="5.3" class="st0" width="2.7" height="2.7"/>
	<polygon class="st0" points="25.3,5.3 25.3,2.7 20,2.7 20,5.3 22.7,5.3 	"/>
	<rect x="17.3" y="5.3" class="st0" width="2.7" height="2.7"/>
	<rect x="14.7" y="8" class="st0" width="2.7" height="2.7"/>
	<rect x="12" y="5.3" class="st0" width="2.7" height="2.7"/>
	<rect x="22.7" y="18.7" class="st0" width="2.7" height="2.7"/>
	<rect x="25.3" y="16" class="st0" width="2.7" height="2.7"/>
	<rect x="14.7" y="26.7" class="st0" width="2.7" height="2.7"/>
	<polygon class="st0" points="28,8 28,10.7 28,13.3 28,16 30.6,16 30.6,8 	"/>
	<rect x="20" y="21.3" class="st0" width="2.7" height="2.7"/>
	<rect x="17.3" y="24" class="st0" width="2.7" height="2.7"/>
	<rect x="6.7" y="18.7" class="st0" width="2.7" height="2.7"/>
	<rect x="9.3" y="21.3" class="st0" width="2.7" height="2.7"/>
	<rect x="12" y="24" class="st0" width="2.7" height="2.7"/>
</g>
</svg>
